<mxfile host="Electron" modified="2024-08-09T12:58:31.617Z" agent="Mozilla/5.0 (Windows NT 10.0; Win64; x64) AppleWebKit/537.36 (KHTML, like Gecko) draw.io/24.6.4 Chrome/124.0.6367.207 Electron/30.0.6 Safari/537.36" etag="gJhcv9KbLymNEbfFGU6c" version="24.6.4" type="device" pages="8">
  <diagram name="Swords" id="dV8yuGZVqavuIWtuv6Pa">
    <mxGraphModel dx="1418" dy="828" grid="1" gridSize="10" guides="1" tooltips="1" connect="1" arrows="1" fold="1" page="1" pageScale="1" pageWidth="827" pageHeight="1169" math="0" shadow="0">
      <root>
        <mxCell id="0" />
        <mxCell id="1" parent="0" />
        <mxCell id="1CMlf8_jSPGhpw4FhLa9-9" style="edgeStyle=orthogonalEdgeStyle;rounded=0;orthogonalLoop=1;jettySize=auto;html=1;exitX=0.5;exitY=1;exitDx=0;exitDy=0;entryX=0.5;entryY=0;entryDx=0;entryDy=0;" parent="1" source="1CMlf8_jSPGhpw4FhLa9-1" target="1CMlf8_jSPGhpw4FhLa9-2" edge="1">
          <mxGeometry relative="1" as="geometry" />
        </mxCell>
        <mxCell id="1CMlf8_jSPGhpw4FhLa9-1" value="Broadsword" style="rounded=1;whiteSpace=wrap;html=1;" parent="1" vertex="1">
          <mxGeometry x="170" y="120" width="130" height="30" as="geometry" />
        </mxCell>
        <mxCell id="1CMlf8_jSPGhpw4FhLa9-10" style="edgeStyle=orthogonalEdgeStyle;rounded=0;orthogonalLoop=1;jettySize=auto;html=1;exitX=0.5;exitY=1;exitDx=0;exitDy=0;entryX=0.5;entryY=0;entryDx=0;entryDy=0;" parent="1" source="1CMlf8_jSPGhpw4FhLa9-2" target="1CMlf8_jSPGhpw4FhLa9-4" edge="1">
          <mxGeometry relative="1" as="geometry" />
        </mxCell>
        <mxCell id="1CMlf8_jSPGhpw4FhLa9-2" value="Steelsword" style="rounded=1;whiteSpace=wrap;html=1;" parent="1" vertex="1">
          <mxGeometry x="170" y="190" width="130" height="30" as="geometry" />
        </mxCell>
        <mxCell id="1CMlf8_jSPGhpw4FhLa9-12" style="edgeStyle=orthogonalEdgeStyle;rounded=0;orthogonalLoop=1;jettySize=auto;html=1;exitX=0.5;exitY=1;exitDx=0;exitDy=0;entryX=0.5;entryY=0;entryDx=0;entryDy=0;" parent="1" source="1CMlf8_jSPGhpw4FhLa9-3" target="1CMlf8_jSPGhpw4FhLa9-5" edge="1">
          <mxGeometry relative="1" as="geometry" />
        </mxCell>
        <mxCell id="1CMlf8_jSPGhpw4FhLa9-3" value="Slicer" style="rounded=1;whiteSpace=wrap;html=1;" parent="1" vertex="1">
          <mxGeometry x="360" y="190" width="130" height="30" as="geometry" />
        </mxCell>
        <mxCell id="1CMlf8_jSPGhpw4FhLa9-11" style="edgeStyle=orthogonalEdgeStyle;rounded=0;orthogonalLoop=1;jettySize=auto;html=1;exitX=0.5;exitY=1;exitDx=0;exitDy=0;entryX=0.5;entryY=0;entryDx=0;entryDy=0;" parent="1" source="1CMlf8_jSPGhpw4FhLa9-4" target="1CMlf8_jSPGhpw4FhLa9-6" edge="1">
          <mxGeometry relative="1" as="geometry" />
        </mxCell>
        <mxCell id="1CMlf8_jSPGhpw4FhLa9-4" value="Longsword" style="rounded=1;whiteSpace=wrap;html=1;" parent="1" vertex="1">
          <mxGeometry x="170" y="260" width="130" height="30" as="geometry" />
        </mxCell>
        <mxCell id="5AmjJ-Yk5ZpupYbRN_nt-2" style="edgeStyle=orthogonalEdgeStyle;rounded=0;orthogonalLoop=1;jettySize=auto;html=1;exitX=0.5;exitY=1;exitDx=0;exitDy=0;entryX=0.5;entryY=0;entryDx=0;entryDy=0;" parent="1" source="1CMlf8_jSPGhpw4FhLa9-5" target="5AmjJ-Yk5ZpupYbRN_nt-1" edge="1">
          <mxGeometry relative="1" as="geometry" />
        </mxCell>
        <mxCell id="1CMlf8_jSPGhpw4FhLa9-5" value="Sanguine Blade" style="rounded=1;whiteSpace=wrap;html=1;" parent="1" vertex="1">
          <mxGeometry x="360" y="260" width="130" height="30" as="geometry" />
        </mxCell>
        <mxCell id="1CMlf8_jSPGhpw4FhLa9-17" style="edgeStyle=orthogonalEdgeStyle;rounded=0;orthogonalLoop=1;jettySize=auto;html=1;exitX=0.5;exitY=1;exitDx=0;exitDy=0;entryX=0.5;entryY=0;entryDx=0;entryDy=0;" parent="1" source="1CMlf8_jSPGhpw4FhLa9-6" target="1CMlf8_jSPGhpw4FhLa9-16" edge="1">
          <mxGeometry relative="1" as="geometry" />
        </mxCell>
        <mxCell id="1CMlf8_jSPGhpw4FhLa9-6" value="Bastard Sword" style="rounded=1;whiteSpace=wrap;html=1;" parent="1" vertex="1">
          <mxGeometry x="170" y="330" width="130" height="30" as="geometry" />
        </mxCell>
        <mxCell id="5AmjJ-Yk5ZpupYbRN_nt-3" style="edgeStyle=orthogonalEdgeStyle;rounded=0;orthogonalLoop=1;jettySize=auto;html=1;exitX=0;exitY=0.5;exitDx=0;exitDy=0;entryX=1;entryY=0.5;entryDx=0;entryDy=0;" parent="1" source="1CMlf8_jSPGhpw4FhLa9-7" target="5AmjJ-Yk5ZpupYbRN_nt-1" edge="1">
          <mxGeometry relative="1" as="geometry" />
        </mxCell>
        <mxCell id="1CMlf8_jSPGhpw4FhLa9-7" value="Executioner&#39;s Blade" style="rounded=1;whiteSpace=wrap;html=1;" parent="1" vertex="1">
          <mxGeometry x="520" y="330" width="130" height="30" as="geometry" />
        </mxCell>
        <mxCell id="1CMlf8_jSPGhpw4FhLa9-19" style="edgeStyle=orthogonalEdgeStyle;rounded=0;orthogonalLoop=1;jettySize=auto;html=1;exitX=0.5;exitY=1;exitDx=0;exitDy=0;entryX=0.5;entryY=0;entryDx=0;entryDy=0;" parent="1" source="1CMlf8_jSPGhpw4FhLa9-8" target="1CMlf8_jSPGhpw4FhLa9-18" edge="1">
          <mxGeometry relative="1" as="geometry" />
        </mxCell>
        <mxCell id="1CMlf8_jSPGhpw4FhLa9-8" value="Rapier" style="rounded=1;whiteSpace=wrap;html=1;" parent="1" vertex="1">
          <mxGeometry x="680" y="400" width="130" height="30" as="geometry" />
        </mxCell>
        <mxCell id="1CMlf8_jSPGhpw4FhLa9-22" style="edgeStyle=orthogonalEdgeStyle;rounded=0;orthogonalLoop=1;jettySize=auto;html=1;exitX=0.5;exitY=1;exitDx=0;exitDy=0;entryX=0.5;entryY=0;entryDx=0;entryDy=0;" parent="1" source="1CMlf8_jSPGhpw4FhLa9-13" target="1CMlf8_jSPGhpw4FhLa9-21" edge="1">
          <mxGeometry relative="1" as="geometry" />
        </mxCell>
        <mxCell id="1CMlf8_jSPGhpw4FhLa9-24" style="edgeStyle=orthogonalEdgeStyle;rounded=0;orthogonalLoop=1;jettySize=auto;html=1;exitX=0.5;exitY=1;exitDx=0;exitDy=0;entryX=0.5;entryY=0;entryDx=0;entryDy=0;" parent="1" source="1CMlf8_jSPGhpw4FhLa9-13" target="1CMlf8_jSPGhpw4FhLa9-23" edge="1">
          <mxGeometry relative="1" as="geometry" />
        </mxCell>
        <mxCell id="1CMlf8_jSPGhpw4FhLa9-13" value="Bloodthirster" style="rounded=1;whiteSpace=wrap;html=1;" parent="1" vertex="1">
          <mxGeometry x="360" y="400" width="130" height="30" as="geometry" />
        </mxCell>
        <mxCell id="1CMlf8_jSPGhpw4FhLa9-26" style="edgeStyle=orthogonalEdgeStyle;rounded=0;orthogonalLoop=1;jettySize=auto;html=1;exitX=0.5;exitY=1;exitDx=0;exitDy=0;entryX=0.5;entryY=0;entryDx=0;entryDy=0;" parent="1" source="1CMlf8_jSPGhpw4FhLa9-16" target="1CMlf8_jSPGhpw4FhLa9-25" edge="1">
          <mxGeometry relative="1" as="geometry" />
        </mxCell>
        <mxCell id="1CMlf8_jSPGhpw4FhLa9-16" value="Claymore" style="rounded=1;whiteSpace=wrap;html=1;" parent="1" vertex="1">
          <mxGeometry x="170" y="400" width="130" height="30" as="geometry" />
        </mxCell>
        <mxCell id="1CMlf8_jSPGhpw4FhLa9-28" style="edgeStyle=orthogonalEdgeStyle;rounded=0;orthogonalLoop=1;jettySize=auto;html=1;exitX=0.5;exitY=1;exitDx=0;exitDy=0;entryX=0.5;entryY=0;entryDx=0;entryDy=0;" parent="1" source="1CMlf8_jSPGhpw4FhLa9-18" target="1CMlf8_jSPGhpw4FhLa9-27" edge="1">
          <mxGeometry relative="1" as="geometry" />
        </mxCell>
        <mxCell id="1CMlf8_jSPGhpw4FhLa9-18" value="Whistling Blade" style="rounded=1;whiteSpace=wrap;html=1;" parent="1" vertex="1">
          <mxGeometry x="680" y="470" width="130" height="30" as="geometry" />
        </mxCell>
        <mxCell id="1CMlf8_jSPGhpw4FhLa9-32" style="edgeStyle=orthogonalEdgeStyle;rounded=0;orthogonalLoop=1;jettySize=auto;html=1;exitX=0.5;exitY=1;exitDx=0;exitDy=0;entryX=0.5;entryY=0;entryDx=0;entryDy=0;" parent="1" source="1CMlf8_jSPGhpw4FhLa9-20" target="1CMlf8_jSPGhpw4FhLa9-31" edge="1">
          <mxGeometry relative="1" as="geometry" />
        </mxCell>
        <mxCell id="1CMlf8_jSPGhpw4FhLa9-20" value="Magiblade" style="rounded=1;whiteSpace=wrap;html=1;" parent="1" vertex="1">
          <mxGeometry x="10" y="470" width="130" height="30" as="geometry" />
        </mxCell>
        <mxCell id="1CMlf8_jSPGhpw4FhLa9-30" style="edgeStyle=orthogonalEdgeStyle;rounded=0;orthogonalLoop=1;jettySize=auto;html=1;exitX=0.5;exitY=1;exitDx=0;exitDy=0;entryX=0.5;entryY=0;entryDx=0;entryDy=0;" parent="1" source="1CMlf8_jSPGhpw4FhLa9-21" target="1CMlf8_jSPGhpw4FhLa9-29" edge="1">
          <mxGeometry relative="1" as="geometry" />
        </mxCell>
        <mxCell id="1CMlf8_jSPGhpw4FhLa9-21" value="Paralyzing Blade" style="rounded=1;whiteSpace=wrap;html=1;" parent="1" vertex="1">
          <mxGeometry x="360" y="470" width="130" height="30" as="geometry" />
        </mxCell>
        <mxCell id="1CMlf8_jSPGhpw4FhLa9-23" value="Sharp Fang" style="rounded=1;whiteSpace=wrap;html=1;" parent="1" vertex="1">
          <mxGeometry x="520" y="470" width="130" height="30" as="geometry" />
        </mxCell>
        <mxCell id="1CMlf8_jSPGhpw4FhLa9-36" style="edgeStyle=orthogonalEdgeStyle;rounded=0;orthogonalLoop=1;jettySize=auto;html=1;exitX=0.5;exitY=1;exitDx=0;exitDy=0;entryX=0.5;entryY=0;entryDx=0;entryDy=0;" parent="1" source="1CMlf8_jSPGhpw4FhLa9-25" target="1CMlf8_jSPGhpw4FhLa9-35" edge="1">
          <mxGeometry relative="1" as="geometry" />
        </mxCell>
        <mxCell id="1CMlf8_jSPGhpw4FhLa9-25" value="Knight Sword" style="rounded=1;whiteSpace=wrap;html=1;" parent="1" vertex="1">
          <mxGeometry x="170" y="540" width="130" height="30" as="geometry" />
        </mxCell>
        <mxCell id="1CMlf8_jSPGhpw4FhLa9-45" style="edgeStyle=orthogonalEdgeStyle;rounded=0;orthogonalLoop=1;jettySize=auto;html=1;exitX=0.5;exitY=1;exitDx=0;exitDy=0;entryX=0.5;entryY=0;entryDx=0;entryDy=0;" parent="1" source="1CMlf8_jSPGhpw4FhLa9-27" target="1CMlf8_jSPGhpw4FhLa9-44" edge="1">
          <mxGeometry relative="1" as="geometry" />
        </mxCell>
        <mxCell id="1CMlf8_jSPGhpw4FhLa9-27" value="Refined Blade" style="rounded=1;whiteSpace=wrap;html=1;" parent="1" vertex="1">
          <mxGeometry x="680" y="540" width="130" height="30" as="geometry" />
        </mxCell>
        <mxCell id="1CMlf8_jSPGhpw4FhLa9-38" style="edgeStyle=orthogonalEdgeStyle;rounded=0;orthogonalLoop=1;jettySize=auto;html=1;exitX=0.5;exitY=1;exitDx=0;exitDy=0;entryX=0.5;entryY=0;entryDx=0;entryDy=0;" parent="1" source="1CMlf8_jSPGhpw4FhLa9-29" target="1CMlf8_jSPGhpw4FhLa9-37" edge="1">
          <mxGeometry relative="1" as="geometry" />
        </mxCell>
        <mxCell id="1CMlf8_jSPGhpw4FhLa9-40" style="edgeStyle=orthogonalEdgeStyle;rounded=0;orthogonalLoop=1;jettySize=auto;html=1;exitX=0.5;exitY=1;exitDx=0;exitDy=0;entryX=0.5;entryY=0;entryDx=0;entryDy=0;" parent="1" source="1CMlf8_jSPGhpw4FhLa9-29" target="1CMlf8_jSPGhpw4FhLa9-39" edge="1">
          <mxGeometry relative="1" as="geometry" />
        </mxCell>
        <mxCell id="1CMlf8_jSPGhpw4FhLa9-60" style="edgeStyle=orthogonalEdgeStyle;rounded=0;orthogonalLoop=1;jettySize=auto;html=1;exitX=1;exitY=0.5;exitDx=0;exitDy=0;entryX=0.5;entryY=0;entryDx=0;entryDy=0;" parent="1" source="1CMlf8_jSPGhpw4FhLa9-29" target="1CMlf8_jSPGhpw4FhLa9-58" edge="1">
          <mxGeometry relative="1" as="geometry">
            <Array as="points">
              <mxPoint x="670" y="625" />
              <mxPoint x="670" y="830" />
              <mxPoint x="585" y="830" />
            </Array>
          </mxGeometry>
        </mxCell>
        <mxCell id="1CMlf8_jSPGhpw4FhLa9-29" value="Calamity" style="rounded=1;whiteSpace=wrap;html=1;" parent="1" vertex="1">
          <mxGeometry x="360" y="610" width="130" height="30" as="geometry" />
        </mxCell>
        <mxCell id="1CMlf8_jSPGhpw4FhLa9-52" style="edgeStyle=orthogonalEdgeStyle;rounded=0;orthogonalLoop=1;jettySize=auto;html=1;exitX=0.5;exitY=1;exitDx=0;exitDy=0;entryX=0.5;entryY=0;entryDx=0;entryDy=0;" parent="1" source="1CMlf8_jSPGhpw4FhLa9-31" target="1CMlf8_jSPGhpw4FhLa9-51" edge="1">
          <mxGeometry relative="1" as="geometry" />
        </mxCell>
        <mxCell id="1CMlf8_jSPGhpw4FhLa9-31" value="Wizard&#39;s Edge" style="rounded=1;whiteSpace=wrap;html=1;" parent="1" vertex="1">
          <mxGeometry x="10" y="610" width="130" height="30" as="geometry" />
        </mxCell>
        <mxCell id="1CMlf8_jSPGhpw4FhLa9-33" value="Bound Blade Axium" style="rounded=1;whiteSpace=wrap;html=1;" parent="1" vertex="1">
          <mxGeometry x="827" y="615" width="130" height="30" as="geometry" />
        </mxCell>
        <mxCell id="1CMlf8_jSPGhpw4FhLa9-34" value="Bound Blade Sanctum" style="rounded=1;whiteSpace=wrap;html=1;" parent="1" vertex="1">
          <mxGeometry x="1090" y="615" width="130" height="30" as="geometry" />
        </mxCell>
        <mxCell id="1CMlf8_jSPGhpw4FhLa9-43" style="edgeStyle=orthogonalEdgeStyle;rounded=0;orthogonalLoop=1;jettySize=auto;html=1;exitX=0.5;exitY=1;exitDx=0;exitDy=0;entryX=0.5;entryY=0;entryDx=0;entryDy=0;" parent="1" source="1CMlf8_jSPGhpw4FhLa9-35" target="1CMlf8_jSPGhpw4FhLa9-42" edge="1">
          <mxGeometry relative="1" as="geometry" />
        </mxCell>
        <mxCell id="1CMlf8_jSPGhpw4FhLa9-55" style="edgeStyle=orthogonalEdgeStyle;rounded=0;orthogonalLoop=1;jettySize=auto;html=1;exitX=0.5;exitY=1;exitDx=0;exitDy=0;entryX=0.5;entryY=0;entryDx=0;entryDy=0;" parent="1" source="1CMlf8_jSPGhpw4FhLa9-35" target="1CMlf8_jSPGhpw4FhLa9-53" edge="1">
          <mxGeometry relative="1" as="geometry">
            <mxPoint x="430" y="750" as="targetPoint" />
            <Array as="points">
              <mxPoint x="235" y="730" />
              <mxPoint x="425" y="730" />
            </Array>
          </mxGeometry>
        </mxCell>
        <mxCell id="1CMlf8_jSPGhpw4FhLa9-35" value="Durandal" style="rounded=1;whiteSpace=wrap;html=1;" parent="1" vertex="1">
          <mxGeometry x="170" y="680" width="130" height="30" as="geometry" />
        </mxCell>
        <mxCell id="1CMlf8_jSPGhpw4FhLa9-37" value="Cursed Razor" style="rounded=1;whiteSpace=wrap;html=1;" parent="1" vertex="1">
          <mxGeometry x="360" y="680" width="130" height="30" as="geometry" />
        </mxCell>
        <mxCell id="1CMlf8_jSPGhpw4FhLa9-39" value="Rampage" style="rounded=1;whiteSpace=wrap;html=1;" parent="1" vertex="1">
          <mxGeometry x="520" y="680" width="130" height="30" as="geometry" />
        </mxCell>
        <mxCell id="1CMlf8_jSPGhpw4FhLa9-42" value="Zweihander" style="rounded=1;whiteSpace=wrap;html=1;" parent="1" vertex="1">
          <mxGeometry x="170" y="750" width="130" height="30" as="geometry" />
        </mxCell>
        <mxCell id="1CMlf8_jSPGhpw4FhLa9-57" style="edgeStyle=orthogonalEdgeStyle;rounded=0;orthogonalLoop=1;jettySize=auto;html=1;exitX=0.5;exitY=1;exitDx=0;exitDy=0;entryX=0.5;entryY=0;entryDx=0;entryDy=0;" parent="1" source="1CMlf8_jSPGhpw4FhLa9-44" target="1CMlf8_jSPGhpw4FhLa9-56" edge="1">
          <mxGeometry relative="1" as="geometry" />
        </mxCell>
        <mxCell id="1CMlf8_jSPGhpw4FhLa9-44" value="Duelist&#39;s Edge" style="rounded=1;whiteSpace=wrap;html=1;" parent="1" vertex="1">
          <mxGeometry x="680" y="750" width="130" height="30" as="geometry" />
        </mxCell>
        <mxCell id="1CMlf8_jSPGhpw4FhLa9-46" value="Alankhrem" style="rounded=1;whiteSpace=wrap;html=1;" parent="1" vertex="1">
          <mxGeometry x="955" y="750" width="130" height="30" as="geometry" />
        </mxCell>
        <mxCell id="1CMlf8_jSPGhpw4FhLa9-47" value="" style="shape=rhombus;html=1;verticalLabelPosition=top;verticalAlignment=bottom;" parent="1" vertex="1">
          <mxGeometry x="1000" y="610" width="40" height="40" as="geometry" />
        </mxCell>
        <mxCell id="1CMlf8_jSPGhpw4FhLa9-48" value="" style="edgeStyle=elbowEdgeStyle;html=1;elbow=horizontal;align=right;verticalAlign=bottom;rounded=0;labelBackgroundColor=none;endArrow=open;endSize=12;exitX=0.5;exitY=1;exitDx=0;exitDy=0;entryX=0.5;entryY=0;entryDx=0;entryDy=0;" parent="1" source="1CMlf8_jSPGhpw4FhLa9-47" target="1CMlf8_jSPGhpw4FhLa9-46" edge="1">
          <mxGeometry relative="1" as="geometry">
            <mxPoint x="990" y="730" as="targetPoint" />
          </mxGeometry>
        </mxCell>
        <mxCell id="1CMlf8_jSPGhpw4FhLa9-49" value="" style="edgeStyle=elbowEdgeStyle;html=1;elbow=vertical;verticalAlign=bottom;startArrow=open;endArrow=none;rounded=0;labelBackgroundColor=none;startSize=12;entryX=0;entryY=0.5;entryDx=0;entryDy=0;exitX=1;exitY=0.5;exitDx=0;exitDy=0;" parent="1" source="1CMlf8_jSPGhpw4FhLa9-47" target="1CMlf8_jSPGhpw4FhLa9-34" edge="1">
          <mxGeometry relative="1" as="geometry">
            <mxPoint x="1090" y="670" as="targetPoint" />
          </mxGeometry>
        </mxCell>
        <mxCell id="1CMlf8_jSPGhpw4FhLa9-50" value="" style="edgeStyle=elbowEdgeStyle;html=1;elbow=vertical;verticalAlign=bottom;startArrow=open;endArrow=none;rounded=0;labelBackgroundColor=none;startSize=12;entryX=1;entryY=0.5;entryDx=0;entryDy=0;exitX=0;exitY=0.5;exitDx=0;exitDy=0;" parent="1" source="1CMlf8_jSPGhpw4FhLa9-47" target="1CMlf8_jSPGhpw4FhLa9-33" edge="1">
          <mxGeometry relative="1" as="geometry">
            <mxPoint x="890" y="670" as="targetPoint" />
            <mxPoint x="1000" y="650" as="sourcePoint" />
          </mxGeometry>
        </mxCell>
        <mxCell id="1CMlf8_jSPGhpw4FhLa9-62" style="edgeStyle=orthogonalEdgeStyle;rounded=0;orthogonalLoop=1;jettySize=auto;html=1;exitX=0.5;exitY=1;exitDx=0;exitDy=0;entryX=0.5;entryY=0;entryDx=0;entryDy=0;" parent="1" source="1CMlf8_jSPGhpw4FhLa9-51" target="1CMlf8_jSPGhpw4FhLa9-61" edge="1">
          <mxGeometry relative="1" as="geometry" />
        </mxCell>
        <mxCell id="1CMlf8_jSPGhpw4FhLa9-51" value="Soul Sword" style="rounded=1;whiteSpace=wrap;html=1;" parent="1" vertex="1">
          <mxGeometry x="10" y="810" width="130" height="30" as="geometry" />
        </mxCell>
        <mxCell id="1CMlf8_jSPGhpw4FhLa9-53" value="Crystal Blade" style="rounded=1;whiteSpace=wrap;html=1;" parent="1" vertex="1">
          <mxGeometry x="360" y="810" width="130" height="30" as="geometry" />
        </mxCell>
        <mxCell id="1CMlf8_jSPGhpw4FhLa9-56" value="Ascalon" style="rounded=1;whiteSpace=wrap;html=1;" parent="1" vertex="1">
          <mxGeometry x="680" y="810" width="130" height="30" as="geometry" />
        </mxCell>
        <mxCell id="1CMlf8_jSPGhpw4FhLa9-58" value="Catastrophe" style="rounded=1;whiteSpace=wrap;html=1;" parent="1" vertex="1">
          <mxGeometry x="520" y="870" width="130" height="30" as="geometry" />
        </mxCell>
        <mxCell id="1CMlf8_jSPGhpw4FhLa9-61" value="Excalibur" style="rounded=1;whiteSpace=wrap;html=1;" parent="1" vertex="1">
          <mxGeometry x="10" y="870" width="130" height="30" as="geometry" />
        </mxCell>
        <mxCell id="1CMlf8_jSPGhpw4FhLa9-63" value="Ragnarok" style="rounded=1;whiteSpace=wrap;html=1;fillColor=#60a917;fontColor=#ffffff;strokeColor=#2D7600;" parent="1" vertex="1">
          <mxGeometry x="170" y="870" width="130" height="30" as="geometry" />
        </mxCell>
        <mxCell id="5AmjJ-Yk5ZpupYbRN_nt-4" style="edgeStyle=orthogonalEdgeStyle;rounded=0;orthogonalLoop=1;jettySize=auto;html=1;exitX=0.5;exitY=1;exitDx=0;exitDy=0;entryX=0.5;entryY=0;entryDx=0;entryDy=0;" parent="1" source="5AmjJ-Yk5ZpupYbRN_nt-1" target="1CMlf8_jSPGhpw4FhLa9-13" edge="1">
          <mxGeometry relative="1" as="geometry" />
        </mxCell>
        <mxCell id="5AmjJ-Yk5ZpupYbRN_nt-1" value="" style="rhombus;whiteSpace=wrap;html=1;" parent="1" vertex="1">
          <mxGeometry x="400" y="320" width="50" height="50" as="geometry" />
        </mxCell>
      </root>
    </mxGraphModel>
  </diagram>
  <diagram id="gIFOVxIbO0Py79rJXaJO" name="Daggers">
    <mxGraphModel dx="2261" dy="844" grid="1" gridSize="10" guides="1" tooltips="1" connect="1" arrows="1" fold="1" page="1" pageScale="1" pageWidth="827" pageHeight="1169" math="0" shadow="0">
      <root>
        <mxCell id="0" />
        <mxCell id="1" parent="0" />
        <mxCell id="MXQcVbLQJFZGQqX2tid1-3" style="edgeStyle=orthogonalEdgeStyle;rounded=0;orthogonalLoop=1;jettySize=auto;html=1;exitX=0.5;exitY=1;exitDx=0;exitDy=0;entryX=0.5;entryY=0;entryDx=0;entryDy=0;" edge="1" parent="1" source="MXQcVbLQJFZGQqX2tid1-1" target="MXQcVbLQJFZGQqX2tid1-2">
          <mxGeometry relative="1" as="geometry" />
        </mxCell>
        <mxCell id="MXQcVbLQJFZGQqX2tid1-1" value="Blunt Knife" style="rounded=1;whiteSpace=wrap;html=1;" vertex="1" parent="1">
          <mxGeometry x="170" y="120" width="130" height="30" as="geometry" />
        </mxCell>
        <mxCell id="MXQcVbLQJFZGQqX2tid1-7" style="edgeStyle=orthogonalEdgeStyle;rounded=0;orthogonalLoop=1;jettySize=auto;html=1;exitX=0.5;exitY=1;exitDx=0;exitDy=0;entryX=0.5;entryY=0;entryDx=0;entryDy=0;" edge="1" parent="1" source="MXQcVbLQJFZGQqX2tid1-2" target="MXQcVbLQJFZGQqX2tid1-6">
          <mxGeometry relative="1" as="geometry" />
        </mxCell>
        <mxCell id="MXQcVbLQJFZGQqX2tid1-2" value="Dirk" style="rounded=1;whiteSpace=wrap;html=1;" vertex="1" parent="1">
          <mxGeometry x="170" y="190" width="130" height="30" as="geometry" />
        </mxCell>
        <mxCell id="MXQcVbLQJFZGQqX2tid1-13" style="edgeStyle=orthogonalEdgeStyle;rounded=0;orthogonalLoop=1;jettySize=auto;html=1;exitX=0.5;exitY=1;exitDx=0;exitDy=0;entryX=0.5;entryY=0;entryDx=0;entryDy=0;" edge="1" parent="1" source="MXQcVbLQJFZGQqX2tid1-4" target="MXQcVbLQJFZGQqX2tid1-12">
          <mxGeometry relative="1" as="geometry" />
        </mxCell>
        <mxCell id="MXQcVbLQJFZGQqX2tid1-4" value="Herbalist&#39;s Billhook" style="rounded=1;whiteSpace=wrap;html=1;" vertex="1" parent="1">
          <mxGeometry x="349" y="190" width="130" height="30" as="geometry" />
        </mxCell>
        <mxCell id="MXQcVbLQJFZGQqX2tid1-9" style="edgeStyle=orthogonalEdgeStyle;rounded=0;orthogonalLoop=1;jettySize=auto;html=1;exitX=0.5;exitY=1;exitDx=0;exitDy=0;entryX=0.5;entryY=0;entryDx=0;entryDy=0;" edge="1" parent="1" source="MXQcVbLQJFZGQqX2tid1-5" target="MXQcVbLQJFZGQqX2tid1-8">
          <mxGeometry relative="1" as="geometry" />
        </mxCell>
        <mxCell id="MXQcVbLQJFZGQqX2tid1-5" value="Poisoned Blade" style="rounded=1;whiteSpace=wrap;html=1;" vertex="1" parent="1">
          <mxGeometry x="530" y="190" width="130" height="30" as="geometry" />
        </mxCell>
        <mxCell id="MXQcVbLQJFZGQqX2tid1-11" style="edgeStyle=orthogonalEdgeStyle;rounded=0;orthogonalLoop=1;jettySize=auto;html=1;exitX=0.5;exitY=1;exitDx=0;exitDy=0;entryX=0.5;entryY=0;entryDx=0;entryDy=0;" edge="1" parent="1" source="MXQcVbLQJFZGQqX2tid1-6" target="MXQcVbLQJFZGQqX2tid1-10">
          <mxGeometry relative="1" as="geometry" />
        </mxCell>
        <mxCell id="MXQcVbLQJFZGQqX2tid1-6" value="Sneaky Steel" style="rounded=1;whiteSpace=wrap;html=1;" vertex="1" parent="1">
          <mxGeometry x="170" y="260" width="130" height="30" as="geometry" />
        </mxCell>
        <mxCell id="MXQcVbLQJFZGQqX2tid1-19" style="edgeStyle=orthogonalEdgeStyle;rounded=0;orthogonalLoop=1;jettySize=auto;html=1;exitX=0.5;exitY=1;exitDx=0;exitDy=0;entryX=0.5;entryY=0;entryDx=0;entryDy=0;" edge="1" parent="1" source="MXQcVbLQJFZGQqX2tid1-8" target="MXQcVbLQJFZGQqX2tid1-18">
          <mxGeometry relative="1" as="geometry" />
        </mxCell>
        <mxCell id="MXQcVbLQJFZGQqX2tid1-8" value="Venomous Blade" style="rounded=1;whiteSpace=wrap;html=1;" vertex="1" parent="1">
          <mxGeometry x="530" y="260" width="130" height="30" as="geometry" />
        </mxCell>
        <mxCell id="MXQcVbLQJFZGQqX2tid1-15" style="edgeStyle=orthogonalEdgeStyle;rounded=0;orthogonalLoop=1;jettySize=auto;html=1;exitX=0.5;exitY=1;exitDx=0;exitDy=0;entryX=0.5;entryY=0;entryDx=0;entryDy=0;" edge="1" parent="1" source="MXQcVbLQJFZGQqX2tid1-10" target="MXQcVbLQJFZGQqX2tid1-14">
          <mxGeometry relative="1" as="geometry" />
        </mxCell>
        <mxCell id="MXQcVbLQJFZGQqX2tid1-10" value="Silver Dagger" style="rounded=1;whiteSpace=wrap;html=1;" vertex="1" parent="1">
          <mxGeometry x="170" y="330" width="130" height="30" as="geometry" />
        </mxCell>
        <mxCell id="MXQcVbLQJFZGQqX2tid1-21" style="edgeStyle=orthogonalEdgeStyle;rounded=0;orthogonalLoop=1;jettySize=auto;html=1;exitX=0.5;exitY=1;exitDx=0;exitDy=0;entryX=0.5;entryY=0;entryDx=0;entryDy=0;" edge="1" parent="1" source="MXQcVbLQJFZGQqX2tid1-12" target="MXQcVbLQJFZGQqX2tid1-20">
          <mxGeometry relative="1" as="geometry" />
        </mxCell>
        <mxCell id="MXQcVbLQJFZGQqX2tid1-12" value="Alchemist Knife" style="rounded=1;whiteSpace=wrap;html=1;" vertex="1" parent="1">
          <mxGeometry x="349" y="330" width="130" height="30" as="geometry" />
        </mxCell>
        <mxCell id="MXQcVbLQJFZGQqX2tid1-17" style="edgeStyle=orthogonalEdgeStyle;rounded=0;orthogonalLoop=1;jettySize=auto;html=1;exitX=0.5;exitY=1;exitDx=0;exitDy=0;entryX=0.5;entryY=0;entryDx=0;entryDy=0;" edge="1" parent="1" source="MXQcVbLQJFZGQqX2tid1-14" target="MXQcVbLQJFZGQqX2tid1-16">
          <mxGeometry relative="1" as="geometry" />
        </mxCell>
        <mxCell id="MXQcVbLQJFZGQqX2tid1-14" value="Anelace" style="rounded=1;whiteSpace=wrap;html=1;" vertex="1" parent="1">
          <mxGeometry x="170" y="400" width="130" height="30" as="geometry" />
        </mxCell>
        <mxCell id="MXQcVbLQJFZGQqX2tid1-25" style="edgeStyle=orthogonalEdgeStyle;rounded=0;orthogonalLoop=1;jettySize=auto;html=1;exitX=0.5;exitY=1;exitDx=0;exitDy=0;entryX=0.5;entryY=0;entryDx=0;entryDy=0;" edge="1" parent="1" source="MXQcVbLQJFZGQqX2tid1-16" target="MXQcVbLQJFZGQqX2tid1-24">
          <mxGeometry relative="1" as="geometry" />
        </mxCell>
        <mxCell id="MXQcVbLQJFZGQqX2tid1-16" value="Baselard" style="rounded=1;whiteSpace=wrap;html=1;" vertex="1" parent="1">
          <mxGeometry x="170" y="470" width="130" height="30" as="geometry" />
        </mxCell>
        <mxCell id="MXQcVbLQJFZGQqX2tid1-33" style="edgeStyle=orthogonalEdgeStyle;rounded=0;orthogonalLoop=1;jettySize=auto;html=1;exitX=0.5;exitY=1;exitDx=0;exitDy=0;entryX=0.5;entryY=0;entryDx=0;entryDy=0;" edge="1" parent="1" source="MXQcVbLQJFZGQqX2tid1-18" target="MXQcVbLQJFZGQqX2tid1-32">
          <mxGeometry relative="1" as="geometry" />
        </mxCell>
        <mxCell id="MXQcVbLQJFZGQqX2tid1-18" value="Badik" style="rounded=1;whiteSpace=wrap;html=1;" vertex="1" parent="1">
          <mxGeometry x="530" y="470" width="130" height="30" as="geometry" />
        </mxCell>
        <mxCell id="MXQcVbLQJFZGQqX2tid1-35" style="edgeStyle=orthogonalEdgeStyle;rounded=0;orthogonalLoop=1;jettySize=auto;html=1;exitX=0.5;exitY=1;exitDx=0;exitDy=0;entryX=0.5;entryY=0;entryDx=0;entryDy=0;" edge="1" parent="1" source="MXQcVbLQJFZGQqX2tid1-20" target="MXQcVbLQJFZGQqX2tid1-34">
          <mxGeometry relative="1" as="geometry" />
        </mxCell>
        <mxCell id="MXQcVbLQJFZGQqX2tid1-20" value="Scholar Steel" style="rounded=1;whiteSpace=wrap;html=1;" vertex="1" parent="1">
          <mxGeometry x="349" y="470" width="130" height="30" as="geometry" />
        </mxCell>
        <mxCell id="MXQcVbLQJFZGQqX2tid1-27" style="edgeStyle=orthogonalEdgeStyle;rounded=0;orthogonalLoop=1;jettySize=auto;html=1;exitX=0.5;exitY=1;exitDx=0;exitDy=0;entryX=0.5;entryY=0;entryDx=0;entryDy=0;" edge="1" parent="1" source="MXQcVbLQJFZGQqX2tid1-22" target="MXQcVbLQJFZGQqX2tid1-26">
          <mxGeometry relative="1" as="geometry" />
        </mxCell>
        <mxCell id="MXQcVbLQJFZGQqX2tid1-31" style="edgeStyle=orthogonalEdgeStyle;rounded=0;orthogonalLoop=1;jettySize=auto;html=1;exitX=0.5;exitY=1;exitDx=0;exitDy=0;entryX=0.5;entryY=0;entryDx=0;entryDy=0;" edge="1" parent="1" source="MXQcVbLQJFZGQqX2tid1-22" target="MXQcVbLQJFZGQqX2tid1-30">
          <mxGeometry relative="1" as="geometry">
            <Array as="points">
              <mxPoint x="775" y="600" />
              <mxPoint x="925" y="600" />
            </Array>
          </mxGeometry>
        </mxCell>
        <mxCell id="MXQcVbLQJFZGQqX2tid1-22" value="Kris" style="rounded=1;whiteSpace=wrap;html=1;" vertex="1" parent="1">
          <mxGeometry x="710" y="530" width="130" height="30" as="geometry" />
        </mxCell>
        <mxCell id="MXQcVbLQJFZGQqX2tid1-29" style="edgeStyle=orthogonalEdgeStyle;rounded=0;orthogonalLoop=1;jettySize=auto;html=1;exitX=0.5;exitY=1;exitDx=0;exitDy=0;entryX=0.5;entryY=0;entryDx=0;entryDy=0;" edge="1" parent="1" source="MXQcVbLQJFZGQqX2tid1-24" target="MXQcVbLQJFZGQqX2tid1-28">
          <mxGeometry relative="1" as="geometry" />
        </mxCell>
        <mxCell id="MXQcVbLQJFZGQqX2tid1-24" value="Khanjali" style="rounded=1;whiteSpace=wrap;html=1;" vertex="1" parent="1">
          <mxGeometry x="170" y="530" width="130" height="30" as="geometry" />
        </mxCell>
        <mxCell id="MXQcVbLQJFZGQqX2tid1-26" value="Spectral Cutlass" style="rounded=1;whiteSpace=wrap;html=1;" vertex="1" parent="1">
          <mxGeometry x="710" y="650" width="130" height="30" as="geometry" />
        </mxCell>
        <mxCell id="MXQcVbLQJFZGQqX2tid1-37" style="edgeStyle=orthogonalEdgeStyle;rounded=0;orthogonalLoop=1;jettySize=auto;html=1;exitX=0.5;exitY=1;exitDx=0;exitDy=0;entryX=0.5;entryY=0;entryDx=0;entryDy=0;" edge="1" parent="1" source="MXQcVbLQJFZGQqX2tid1-28" target="MXQcVbLQJFZGQqX2tid1-36">
          <mxGeometry relative="1" as="geometry" />
        </mxCell>
        <mxCell id="MXQcVbLQJFZGQqX2tid1-28" value="Cinquedea" style="rounded=1;whiteSpace=wrap;html=1;" vertex="1" parent="1">
          <mxGeometry x="170" y="650" width="130" height="30" as="geometry" />
        </mxCell>
        <mxCell id="MXQcVbLQJFZGQqX2tid1-30" value="Kalis" style="rounded=1;whiteSpace=wrap;html=1;" vertex="1" parent="1">
          <mxGeometry x="860" y="720" width="130" height="30" as="geometry" />
        </mxCell>
        <mxCell id="MXQcVbLQJFZGQqX2tid1-32" value="Bad Omens" style="rounded=1;whiteSpace=wrap;html=1;" vertex="1" parent="1">
          <mxGeometry x="530" y="720" width="130" height="30" as="geometry" />
        </mxCell>
        <mxCell id="MXQcVbLQJFZGQqX2tid1-34" value="Kila" style="rounded=1;whiteSpace=wrap;html=1;" vertex="1" parent="1">
          <mxGeometry x="349" y="780" width="130" height="30" as="geometry" />
        </mxCell>
        <mxCell id="MXQcVbLQJFZGQqX2tid1-36" value="Yoroi Doshi" style="rounded=1;whiteSpace=wrap;html=1;" vertex="1" parent="1">
          <mxGeometry x="170" y="840" width="130" height="30" as="geometry" />
        </mxCell>
        <mxCell id="MXQcVbLQJFZGQqX2tid1-38" value="Killing Doll" style="rounded=1;whiteSpace=wrap;html=1;fillColor=#60a917;fontColor=#ffffff;strokeColor=#2D7600;" vertex="1" parent="1">
          <mxGeometry x="-10" y="840" width="130" height="30" as="geometry" />
        </mxCell>
      </root>
    </mxGraphModel>
  </diagram>
  <diagram id="6dj184usk5NL2-i28NSk" name="Axes">
    <mxGraphModel dx="2261" dy="844" grid="1" gridSize="10" guides="1" tooltips="1" connect="1" arrows="1" fold="1" page="1" pageScale="1" pageWidth="827" pageHeight="1169" math="0" shadow="0">
      <root>
        <mxCell id="0" />
        <mxCell id="1" parent="0" />
        <mxCell id="h0UjxXjWkSl1X1LqyhQw-4" style="edgeStyle=orthogonalEdgeStyle;rounded=0;orthogonalLoop=1;jettySize=auto;html=1;exitX=0.5;exitY=1;exitDx=0;exitDy=0;entryX=0.5;entryY=0;entryDx=0;entryDy=0;" edge="1" parent="1" source="h0UjxXjWkSl1X1LqyhQw-1" target="h0UjxXjWkSl1X1LqyhQw-2">
          <mxGeometry relative="1" as="geometry" />
        </mxCell>
        <mxCell id="h0UjxXjWkSl1X1LqyhQw-1" value="Iron Axe" style="rounded=1;whiteSpace=wrap;html=1;" vertex="1" parent="1">
          <mxGeometry x="80" y="50" width="130" height="30" as="geometry" />
        </mxCell>
        <mxCell id="h0UjxXjWkSl1X1LqyhQw-5" style="edgeStyle=orthogonalEdgeStyle;rounded=0;orthogonalLoop=1;jettySize=auto;html=1;exitX=0.5;exitY=1;exitDx=0;exitDy=0;entryX=0.5;entryY=0;entryDx=0;entryDy=0;" edge="1" parent="1" source="h0UjxXjWkSl1X1LqyhQw-2" target="h0UjxXjWkSl1X1LqyhQw-3">
          <mxGeometry relative="1" as="geometry" />
        </mxCell>
        <mxCell id="h0UjxXjWkSl1X1LqyhQw-2" value="Steel Axe" style="rounded=1;whiteSpace=wrap;html=1;" vertex="1" parent="1">
          <mxGeometry x="80" y="120" width="130" height="30" as="geometry" />
        </mxCell>
        <mxCell id="h0UjxXjWkSl1X1LqyhQw-7" style="edgeStyle=orthogonalEdgeStyle;rounded=0;orthogonalLoop=1;jettySize=auto;html=1;exitX=0.5;exitY=1;exitDx=0;exitDy=0;entryX=0.5;entryY=0;entryDx=0;entryDy=0;" edge="1" parent="1" source="h0UjxXjWkSl1X1LqyhQw-3" target="h0UjxXjWkSl1X1LqyhQw-6">
          <mxGeometry relative="1" as="geometry" />
        </mxCell>
        <mxCell id="h0UjxXjWkSl1X1LqyhQw-3" value="Splitting Axe" style="rounded=1;whiteSpace=wrap;html=1;" vertex="1" parent="1">
          <mxGeometry x="80" y="190" width="130" height="30" as="geometry" />
        </mxCell>
        <mxCell id="h0UjxXjWkSl1X1LqyhQw-10" style="edgeStyle=orthogonalEdgeStyle;rounded=0;orthogonalLoop=1;jettySize=auto;html=1;exitX=0.5;exitY=1;exitDx=0;exitDy=0;entryX=0.5;entryY=0;entryDx=0;entryDy=0;" edge="1" parent="1" source="h0UjxXjWkSl1X1LqyhQw-6" target="h0UjxXjWkSl1X1LqyhQw-9">
          <mxGeometry relative="1" as="geometry" />
        </mxCell>
        <mxCell id="h0UjxXjWkSl1X1LqyhQw-6" value="Tomahawk" style="rounded=1;whiteSpace=wrap;html=1;" vertex="1" parent="1">
          <mxGeometry x="80" y="260" width="130" height="30" as="geometry" />
        </mxCell>
        <mxCell id="h0UjxXjWkSl1X1LqyhQw-12" style="edgeStyle=orthogonalEdgeStyle;rounded=0;orthogonalLoop=1;jettySize=auto;html=1;exitX=0.5;exitY=1;exitDx=0;exitDy=0;entryX=0.5;entryY=0;entryDx=0;entryDy=0;" edge="1" parent="1" source="h0UjxXjWkSl1X1LqyhQw-8" target="h0UjxXjWkSl1X1LqyhQw-11">
          <mxGeometry relative="1" as="geometry" />
        </mxCell>
        <mxCell id="h0UjxXjWkSl1X1LqyhQw-16" style="edgeStyle=orthogonalEdgeStyle;rounded=0;orthogonalLoop=1;jettySize=auto;html=1;exitX=0.5;exitY=1;exitDx=0;exitDy=0;entryX=0.5;entryY=0;entryDx=0;entryDy=0;" edge="1" parent="1" source="h0UjxXjWkSl1X1LqyhQw-8" target="h0UjxXjWkSl1X1LqyhQw-15">
          <mxGeometry relative="1" as="geometry">
            <Array as="points">
              <mxPoint x="525" y="310" />
              <mxPoint x="995" y="310" />
            </Array>
          </mxGeometry>
        </mxCell>
        <mxCell id="h0UjxXjWkSl1X1LqyhQw-8" value="Sagaris" style="rounded=1;whiteSpace=wrap;html=1;" vertex="1" parent="1">
          <mxGeometry x="460" y="260" width="130" height="30" as="geometry" />
        </mxCell>
        <mxCell id="h0UjxXjWkSl1X1LqyhQw-14" style="edgeStyle=orthogonalEdgeStyle;rounded=0;orthogonalLoop=1;jettySize=auto;html=1;exitX=0.5;exitY=1;exitDx=0;exitDy=0;entryX=0.5;entryY=0;entryDx=0;entryDy=0;" edge="1" parent="1" source="h0UjxXjWkSl1X1LqyhQw-9" target="h0UjxXjWkSl1X1LqyhQw-13">
          <mxGeometry relative="1" as="geometry" />
        </mxCell>
        <mxCell id="h0UjxXjWkSl1X1LqyhQw-9" value="Battle Axe" style="rounded=1;whiteSpace=wrap;html=1;" vertex="1" parent="1">
          <mxGeometry x="80" y="330" width="130" height="30" as="geometry" />
        </mxCell>
        <mxCell id="h0UjxXjWkSl1X1LqyhQw-19" style="edgeStyle=orthogonalEdgeStyle;rounded=0;orthogonalLoop=1;jettySize=auto;html=1;exitX=0.5;exitY=1;exitDx=0;exitDy=0;entryX=0.5;entryY=0;entryDx=0;entryDy=0;" edge="1" parent="1" source="h0UjxXjWkSl1X1LqyhQw-11" target="h0UjxXjWkSl1X1LqyhQw-17">
          <mxGeometry relative="1" as="geometry" />
        </mxCell>
        <mxCell id="h0UjxXjWkSl1X1LqyhQw-11" value="Lumberjack&#39;s Dream" style="rounded=1;whiteSpace=wrap;html=1;" vertex="1" parent="1">
          <mxGeometry x="460" y="330" width="130" height="30" as="geometry" />
        </mxCell>
        <mxCell id="h0UjxXjWkSl1X1LqyhQw-20" style="edgeStyle=orthogonalEdgeStyle;rounded=0;orthogonalLoop=1;jettySize=auto;html=1;exitX=0.5;exitY=1;exitDx=0;exitDy=0;entryX=0.5;entryY=0;entryDx=0;entryDy=0;" edge="1" parent="1" source="h0UjxXjWkSl1X1LqyhQw-13" target="h0UjxXjWkSl1X1LqyhQw-18">
          <mxGeometry relative="1" as="geometry" />
        </mxCell>
        <mxCell id="h0UjxXjWkSl1X1LqyhQw-25" style="edgeStyle=orthogonalEdgeStyle;rounded=0;orthogonalLoop=1;jettySize=auto;html=1;exitX=0.5;exitY=1;exitDx=0;exitDy=0;entryX=0.5;entryY=0;entryDx=0;entryDy=0;" edge="1" parent="1" source="h0UjxXjWkSl1X1LqyhQw-13" target="h0UjxXjWkSl1X1LqyhQw-24">
          <mxGeometry relative="1" as="geometry">
            <Array as="points">
              <mxPoint x="145" y="480" />
              <mxPoint x="-25" y="480" />
            </Array>
          </mxGeometry>
        </mxCell>
        <mxCell id="h0UjxXjWkSl1X1LqyhQw-13" value="Ono" style="rounded=1;whiteSpace=wrap;html=1;" vertex="1" parent="1">
          <mxGeometry x="80" y="400" width="130" height="30" as="geometry" />
        </mxCell>
        <mxCell id="h0UjxXjWkSl1X1LqyhQw-23" style="edgeStyle=orthogonalEdgeStyle;rounded=0;orthogonalLoop=1;jettySize=auto;html=1;exitX=0.5;exitY=1;exitDx=0;exitDy=0;entryX=0.5;entryY=0;entryDx=0;entryDy=0;" edge="1" parent="1" source="h0UjxXjWkSl1X1LqyhQw-15" target="h0UjxXjWkSl1X1LqyhQw-22">
          <mxGeometry relative="1" as="geometry" />
        </mxCell>
        <mxCell id="h0UjxXjWkSl1X1LqyhQw-15" value="Francisca" style="rounded=1;whiteSpace=wrap;html=1;" vertex="1" parent="1">
          <mxGeometry x="930" y="465" width="130" height="30" as="geometry" />
        </mxCell>
        <mxCell id="h0UjxXjWkSl1X1LqyhQw-17" value="The Cleaver" style="rounded=1;whiteSpace=wrap;html=1;" vertex="1" parent="1">
          <mxGeometry x="460" y="530" width="130" height="30" as="geometry" />
        </mxCell>
        <mxCell id="h0UjxXjWkSl1X1LqyhQw-18" value="The Crusher" style="rounded=1;whiteSpace=wrap;html=1;" vertex="1" parent="1">
          <mxGeometry x="80" y="530" width="130" height="30" as="geometry" />
        </mxCell>
        <mxCell id="h0UjxXjWkSl1X1LqyhQw-21" value="The Sanguine" style="rounded=1;whiteSpace=wrap;html=1;" vertex="1" parent="1">
          <mxGeometry x="770" y="530" width="130" height="30" as="geometry" />
        </mxCell>
        <mxCell id="h0UjxXjWkSl1X1LqyhQw-27" style="edgeStyle=orthogonalEdgeStyle;rounded=0;orthogonalLoop=1;jettySize=auto;html=1;exitX=0.5;exitY=1;exitDx=0;exitDy=0;entryX=0.5;entryY=0;entryDx=0;entryDy=0;" edge="1" parent="1" source="h0UjxXjWkSl1X1LqyhQw-22" target="h0UjxXjWkSl1X1LqyhQw-26">
          <mxGeometry relative="1" as="geometry" />
        </mxCell>
        <mxCell id="h0UjxXjWkSl1X1LqyhQw-22" value="Parashu" style="rounded=1;whiteSpace=wrap;html=1;" vertex="1" parent="1">
          <mxGeometry x="930" y="605" width="130" height="30" as="geometry" />
        </mxCell>
        <mxCell id="h0UjxXjWkSl1X1LqyhQw-24" value="Yue" style="rounded=1;whiteSpace=wrap;html=1;" vertex="1" parent="1">
          <mxGeometry x="-90" y="600" width="130" height="30" as="geometry" />
        </mxCell>
        <mxCell id="h0UjxXjWkSl1X1LqyhQw-26" value="Golden Axe" style="rounded=1;whiteSpace=wrap;html=1;" vertex="1" parent="1">
          <mxGeometry x="930" y="675" width="130" height="30" as="geometry" />
        </mxCell>
        <mxCell id="h0UjxXjWkSl1X1LqyhQw-28" value="Warchief&#39;s Axe" style="rounded=1;whiteSpace=wrap;html=1;" vertex="1" parent="1">
          <mxGeometry x="266.5" y="720" width="130" height="30" as="geometry" />
        </mxCell>
        <mxCell id="h0UjxXjWkSl1X1LqyhQw-29" value="Warlord&#39;s Steel" style="rounded=1;whiteSpace=wrap;html=1;" vertex="1" parent="1">
          <mxGeometry x="616.5" y="720" width="130" height="30" as="geometry" />
        </mxCell>
        <mxCell id="20MINYzbA1NI3WMS9Y_U-1" value="" style="shape=rhombus;html=1;verticalLabelPosition=top;verticalAlignment=bottom;" vertex="1" parent="1">
          <mxGeometry x="311.5" y="526" width="40" height="40" as="geometry" />
        </mxCell>
        <mxCell id="20MINYzbA1NI3WMS9Y_U-2" value="" style="edgeStyle=elbowEdgeStyle;html=1;elbow=horizontal;align=right;verticalAlign=bottom;rounded=0;labelBackgroundColor=none;endArrow=open;endSize=12;exitX=0.5;exitY=1;exitDx=0;exitDy=0;entryX=0.5;entryY=0;entryDx=0;entryDy=0;" edge="1" parent="1" source="20MINYzbA1NI3WMS9Y_U-1" target="h0UjxXjWkSl1X1LqyhQw-28">
          <mxGeometry relative="1" as="geometry">
            <mxPoint x="331.5" y="670" as="targetPoint" />
          </mxGeometry>
        </mxCell>
        <mxCell id="20MINYzbA1NI3WMS9Y_U-3" value="" style="edgeStyle=elbowEdgeStyle;html=1;elbow=vertical;verticalAlign=bottom;startArrow=open;endArrow=none;rounded=0;labelBackgroundColor=none;startSize=12;entryX=0;entryY=0.5;entryDx=0;entryDy=0;exitX=1;exitY=0.5;exitDx=0;exitDy=0;" edge="1" parent="1" source="20MINYzbA1NI3WMS9Y_U-1" target="h0UjxXjWkSl1X1LqyhQw-17">
          <mxGeometry relative="1" as="geometry">
            <mxPoint x="401.5" y="550" as="targetPoint" />
          </mxGeometry>
        </mxCell>
        <mxCell id="20MINYzbA1NI3WMS9Y_U-4" value="" style="edgeStyle=elbowEdgeStyle;html=1;elbow=vertical;verticalAlign=bottom;startArrow=open;endArrow=none;rounded=0;labelBackgroundColor=none;startSize=12;entryX=1;entryY=0.5;entryDx=0;entryDy=0;exitX=0;exitY=0.5;exitDx=0;exitDy=0;" edge="1" parent="1" source="20MINYzbA1NI3WMS9Y_U-1" target="h0UjxXjWkSl1X1LqyhQw-18">
          <mxGeometry relative="1" as="geometry">
            <mxPoint x="268.5" y="550" as="targetPoint" />
            <mxPoint x="311.5" y="570" as="sourcePoint" />
          </mxGeometry>
        </mxCell>
        <mxCell id="20MINYzbA1NI3WMS9Y_U-5" value="" style="shape=rhombus;html=1;verticalLabelPosition=top;verticalAlignment=bottom;" vertex="1" parent="1">
          <mxGeometry x="661.5" y="525" width="40" height="40" as="geometry" />
        </mxCell>
        <mxCell id="20MINYzbA1NI3WMS9Y_U-6" value="" style="edgeStyle=elbowEdgeStyle;html=1;elbow=horizontal;align=right;verticalAlign=bottom;rounded=0;labelBackgroundColor=none;endArrow=open;endSize=12;exitX=0.5;exitY=1;exitDx=0;exitDy=0;entryX=0.5;entryY=0;entryDx=0;entryDy=0;" edge="1" parent="1" source="20MINYzbA1NI3WMS9Y_U-5">
          <mxGeometry relative="1" as="geometry">
            <mxPoint x="681.5" y="720" as="targetPoint" />
          </mxGeometry>
        </mxCell>
        <mxCell id="20MINYzbA1NI3WMS9Y_U-7" value="" style="edgeStyle=elbowEdgeStyle;html=1;elbow=vertical;verticalAlign=bottom;startArrow=open;endArrow=none;rounded=0;labelBackgroundColor=none;startSize=12;exitX=1;exitY=0.5;exitDx=0;exitDy=0;" edge="1" parent="1" source="20MINYzbA1NI3WMS9Y_U-5">
          <mxGeometry relative="1" as="geometry">
            <mxPoint x="770" y="545" as="targetPoint" />
          </mxGeometry>
        </mxCell>
        <mxCell id="20MINYzbA1NI3WMS9Y_U-8" value="" style="edgeStyle=elbowEdgeStyle;html=1;elbow=vertical;verticalAlign=bottom;startArrow=open;endArrow=none;rounded=0;labelBackgroundColor=none;startSize=12;exitX=0.5;exitY=0;exitDx=0;exitDy=0;entryX=1;entryY=0.25;entryDx=0;entryDy=0;" edge="1" parent="1" source="20MINYzbA1NI3WMS9Y_U-5" target="h0UjxXjWkSl1X1LqyhQw-18">
          <mxGeometry relative="1" as="geometry">
            <mxPoint x="230" y="460" as="targetPoint" />
            <mxPoint x="661.5" y="570" as="sourcePoint" />
            <Array as="points">
              <mxPoint x="430" y="470" />
            </Array>
          </mxGeometry>
        </mxCell>
        <mxCell id="20MINYzbA1NI3WMS9Y_U-9" value="Blood Angel" style="rounded=1;whiteSpace=wrap;html=1;fillColor=#60a917;fontColor=#ffffff;strokeColor=#2D7600;" vertex="1" parent="1">
          <mxGeometry x="460" y="800" width="130" height="30" as="geometry" />
        </mxCell>
      </root>
    </mxGraphModel>
  </diagram>
  <diagram id="Fm77I5KZCR1ffUn9nCoQ" name="Claws">
    <mxGraphModel dx="2261" dy="844" grid="1" gridSize="10" guides="1" tooltips="1" connect="1" arrows="1" fold="1" page="1" pageScale="1" pageWidth="827" pageHeight="1169" math="0" shadow="0">
      <root>
        <mxCell id="0" />
        <mxCell id="1" parent="0" />
        <mxCell id="yFBCCEyttnvlAxDrwE9F-3" style="edgeStyle=orthogonalEdgeStyle;rounded=0;orthogonalLoop=1;jettySize=auto;html=1;exitX=0.5;exitY=1;exitDx=0;exitDy=0;entryX=0.5;entryY=0;entryDx=0;entryDy=0;" edge="1" parent="1" source="yFBCCEyttnvlAxDrwE9F-1" target="yFBCCEyttnvlAxDrwE9F-2">
          <mxGeometry relative="1" as="geometry" />
        </mxCell>
        <mxCell id="yFBCCEyttnvlAxDrwE9F-1" value="Steel Claws" style="rounded=1;whiteSpace=wrap;html=1;" vertex="1" parent="1">
          <mxGeometry x="80" y="150" width="130" height="30" as="geometry" />
        </mxCell>
        <mxCell id="yFBCCEyttnvlAxDrwE9F-5" style="edgeStyle=orthogonalEdgeStyle;rounded=0;orthogonalLoop=1;jettySize=auto;html=1;exitX=0.5;exitY=1;exitDx=0;exitDy=0;entryX=0.5;entryY=0;entryDx=0;entryDy=0;" edge="1" parent="1" source="yFBCCEyttnvlAxDrwE9F-2" target="yFBCCEyttnvlAxDrwE9F-4">
          <mxGeometry relative="1" as="geometry" />
        </mxCell>
        <mxCell id="yFBCCEyttnvlAxDrwE9F-2" value="Tiger&#39;s Fury" style="rounded=1;whiteSpace=wrap;html=1;" vertex="1" parent="1">
          <mxGeometry x="80" y="220" width="130" height="30" as="geometry" />
        </mxCell>
        <mxCell id="yFBCCEyttnvlAxDrwE9F-14" style="edgeStyle=orthogonalEdgeStyle;rounded=0;orthogonalLoop=1;jettySize=auto;html=1;exitX=0.5;exitY=1;exitDx=0;exitDy=0;entryX=0.5;entryY=0;entryDx=0;entryDy=0;" edge="1" parent="1" source="yFBCCEyttnvlAxDrwE9F-4" target="yFBCCEyttnvlAxDrwE9F-12">
          <mxGeometry relative="1" as="geometry" />
        </mxCell>
        <mxCell id="8llKmy0xsEJ4uIH6ffch-4" style="edgeStyle=orthogonalEdgeStyle;rounded=0;orthogonalLoop=1;jettySize=auto;html=1;exitX=0.5;exitY=1;exitDx=0;exitDy=0;entryX=0.5;entryY=0;entryDx=0;entryDy=0;" edge="1" parent="1" source="yFBCCEyttnvlAxDrwE9F-4" target="8llKmy0xsEJ4uIH6ffch-2">
          <mxGeometry relative="1" as="geometry" />
        </mxCell>
        <mxCell id="yFBCCEyttnvlAxDrwE9F-4" value="Deadly Paws" style="rounded=1;whiteSpace=wrap;html=1;" vertex="1" parent="1">
          <mxGeometry x="80" y="290" width="130" height="30" as="geometry" />
        </mxCell>
        <mxCell id="8llKmy0xsEJ4uIH6ffch-3" style="edgeStyle=orthogonalEdgeStyle;rounded=0;orthogonalLoop=1;jettySize=auto;html=1;exitX=0.5;exitY=1;exitDx=0;exitDy=0;entryX=0;entryY=0.5;entryDx=0;entryDy=0;" edge="1" parent="1" source="yFBCCEyttnvlAxDrwE9F-6" target="8llKmy0xsEJ4uIH6ffch-2">
          <mxGeometry relative="1" as="geometry" />
        </mxCell>
        <mxCell id="yFBCCEyttnvlAxDrwE9F-6" value="Soul of the Wolf" style="rounded=1;whiteSpace=wrap;html=1;" vertex="1" parent="1">
          <mxGeometry x="-260" y="360" width="130" height="30" as="geometry" />
        </mxCell>
        <mxCell id="yFBCCEyttnvlAxDrwE9F-13" style="edgeStyle=orthogonalEdgeStyle;rounded=0;orthogonalLoop=1;jettySize=auto;html=1;exitX=0.5;exitY=1;exitDx=0;exitDy=0;entryX=1;entryY=0.5;entryDx=0;entryDy=0;" edge="1" parent="1" source="yFBCCEyttnvlAxDrwE9F-8" target="yFBCCEyttnvlAxDrwE9F-12">
          <mxGeometry relative="1" as="geometry" />
        </mxCell>
        <mxCell id="yFBCCEyttnvlAxDrwE9F-8" value="Silver Fangs" style="rounded=1;whiteSpace=wrap;html=1;" vertex="1" parent="1">
          <mxGeometry x="250" y="360" width="130" height="30" as="geometry" />
        </mxCell>
        <mxCell id="8llKmy0xsEJ4uIH6ffch-8" style="edgeStyle=orthogonalEdgeStyle;rounded=0;orthogonalLoop=1;jettySize=auto;html=1;exitX=0.5;exitY=1;exitDx=0;exitDy=0;entryX=0.5;entryY=0;entryDx=0;entryDy=0;" edge="1" parent="1" source="yFBCCEyttnvlAxDrwE9F-9" target="8llKmy0xsEJ4uIH6ffch-7">
          <mxGeometry relative="1" as="geometry" />
        </mxCell>
        <mxCell id="yFBCCEyttnvlAxDrwE9F-9" value="Torments" style="rounded=1;whiteSpace=wrap;html=1;" vertex="1" parent="1">
          <mxGeometry x="430" y="360" width="130" height="30" as="geometry" />
        </mxCell>
        <mxCell id="8llKmy0xsEJ4uIH6ffch-10" style="edgeStyle=orthogonalEdgeStyle;rounded=0;orthogonalLoop=1;jettySize=auto;html=1;exitX=0.5;exitY=1;exitDx=0;exitDy=0;entryX=0.5;entryY=0;entryDx=0;entryDy=0;" edge="1" parent="1" source="yFBCCEyttnvlAxDrwE9F-10" target="8llKmy0xsEJ4uIH6ffch-9">
          <mxGeometry relative="1" as="geometry" />
        </mxCell>
        <mxCell id="yFBCCEyttnvlAxDrwE9F-10" value="The Gloves" style="rounded=1;whiteSpace=wrap;html=1;" vertex="1" parent="1">
          <mxGeometry x="80" y="490" width="130" height="30" as="geometry" />
        </mxCell>
        <mxCell id="yFBCCEyttnvlAxDrwE9F-15" style="edgeStyle=orthogonalEdgeStyle;rounded=0;orthogonalLoop=1;jettySize=auto;html=1;exitX=0.5;exitY=1;exitDx=0;exitDy=0;entryX=0.5;entryY=0;entryDx=0;entryDy=0;" edge="1" parent="1" source="yFBCCEyttnvlAxDrwE9F-12" target="yFBCCEyttnvlAxDrwE9F-10">
          <mxGeometry relative="1" as="geometry" />
        </mxCell>
        <mxCell id="yFBCCEyttnvlAxDrwE9F-12" value="" style="rhombus;whiteSpace=wrap;html=1;" vertex="1" parent="1">
          <mxGeometry x="115" y="380" width="60" height="60" as="geometry" />
        </mxCell>
        <mxCell id="8llKmy0xsEJ4uIH6ffch-6" style="edgeStyle=orthogonalEdgeStyle;rounded=0;orthogonalLoop=1;jettySize=auto;html=1;exitX=0.5;exitY=1;exitDx=0;exitDy=0;entryX=0.5;entryY=0;entryDx=0;entryDy=0;" edge="1" parent="1" source="8llKmy0xsEJ4uIH6ffch-2" target="8llKmy0xsEJ4uIH6ffch-5">
          <mxGeometry relative="1" as="geometry" />
        </mxCell>
        <mxCell id="8llKmy0xsEJ4uIH6ffch-2" value="" style="rhombus;whiteSpace=wrap;html=1;" vertex="1" parent="1">
          <mxGeometry x="-90" y="380" width="60" height="60" as="geometry" />
        </mxCell>
        <mxCell id="8llKmy0xsEJ4uIH6ffch-12" style="edgeStyle=orthogonalEdgeStyle;rounded=0;orthogonalLoop=1;jettySize=auto;html=1;exitX=0.5;exitY=1;exitDx=0;exitDy=0;entryX=0.5;entryY=0;entryDx=0;entryDy=0;" edge="1" parent="1" source="8llKmy0xsEJ4uIH6ffch-5" target="8llKmy0xsEJ4uIH6ffch-11">
          <mxGeometry relative="1" as="geometry" />
        </mxCell>
        <mxCell id="8llKmy0xsEJ4uIH6ffch-5" value="Night Prawler" style="rounded=1;whiteSpace=wrap;html=1;" vertex="1" parent="1">
          <mxGeometry x="-125" y="490" width="130" height="30" as="geometry" />
        </mxCell>
        <mxCell id="8llKmy0xsEJ4uIH6ffch-14" style="edgeStyle=orthogonalEdgeStyle;rounded=0;orthogonalLoop=1;jettySize=auto;html=1;exitX=0.5;exitY=1;exitDx=0;exitDy=0;entryX=0.5;entryY=0;entryDx=0;entryDy=0;" edge="1" parent="1" source="8llKmy0xsEJ4uIH6ffch-7" target="8llKmy0xsEJ4uIH6ffch-13">
          <mxGeometry relative="1" as="geometry" />
        </mxCell>
        <mxCell id="8llKmy0xsEJ4uIH6ffch-7" value="Snake Bite" style="rounded=1;whiteSpace=wrap;html=1;" vertex="1" parent="1">
          <mxGeometry x="430" y="555" width="130" height="30" as="geometry" />
        </mxCell>
        <mxCell id="8llKmy0xsEJ4uIH6ffch-18" style="edgeStyle=orthogonalEdgeStyle;rounded=0;orthogonalLoop=1;jettySize=auto;html=1;exitX=0.5;exitY=1;exitDx=0;exitDy=0;entryX=0.5;entryY=0;entryDx=0;entryDy=0;" edge="1" parent="1" source="8llKmy0xsEJ4uIH6ffch-9" target="8llKmy0xsEJ4uIH6ffch-15">
          <mxGeometry relative="1" as="geometry" />
        </mxCell>
        <mxCell id="8llKmy0xsEJ4uIH6ffch-9" value="Feline Wrath" style="rounded=1;whiteSpace=wrap;html=1;" vertex="1" parent="1">
          <mxGeometry x="80" y="555" width="130" height="30" as="geometry" />
        </mxCell>
        <mxCell id="8llKmy0xsEJ4uIH6ffch-17" style="edgeStyle=orthogonalEdgeStyle;rounded=0;orthogonalLoop=1;jettySize=auto;html=1;exitX=0.5;exitY=1;exitDx=0;exitDy=0;entryX=0.5;entryY=0;entryDx=0;entryDy=0;" edge="1" parent="1" source="8llKmy0xsEJ4uIH6ffch-11" target="8llKmy0xsEJ4uIH6ffch-16">
          <mxGeometry relative="1" as="geometry" />
        </mxCell>
        <mxCell id="8llKmy0xsEJ4uIH6ffch-11" value="Moonfang" style="rounded=1;whiteSpace=wrap;html=1;" vertex="1" parent="1">
          <mxGeometry x="-125" y="620" width="130" height="30" as="geometry" />
        </mxCell>
        <mxCell id="8llKmy0xsEJ4uIH6ffch-13" value="Hands of Doom" style="rounded=1;whiteSpace=wrap;html=1;" vertex="1" parent="1">
          <mxGeometry x="430" y="680" width="130" height="30" as="geometry" />
        </mxCell>
        <mxCell id="8llKmy0xsEJ4uIH6ffch-15" value="Crystal Claws" style="rounded=1;whiteSpace=wrap;html=1;" vertex="1" parent="1">
          <mxGeometry x="80" y="740" width="130" height="30" as="geometry" />
        </mxCell>
        <mxCell id="8llKmy0xsEJ4uIH6ffch-16" value="Astral Fangs" style="rounded=1;whiteSpace=wrap;html=1;" vertex="1" parent="1">
          <mxGeometry x="-125" y="740" width="130" height="30" as="geometry" />
        </mxCell>
      </root>
    </mxGraphModel>
  </diagram>
  <diagram id="lJ3QST0nYVxTMt3LVair" name="Scepters">
    <mxGraphModel dx="3072" dy="828" grid="1" gridSize="10" guides="1" tooltips="1" connect="1" arrows="1" fold="1" page="1" pageScale="1" pageWidth="827" pageHeight="1169" math="0" shadow="0">
      <root>
        <mxCell id="0" />
        <mxCell id="1" parent="0" />
        <mxCell id="ZDXRayosPP1OUtTZSC_J-6" style="edgeStyle=orthogonalEdgeStyle;rounded=0;orthogonalLoop=1;jettySize=auto;html=1;exitX=0.5;exitY=1;exitDx=0;exitDy=0;entryX=0.5;entryY=0;entryDx=0;entryDy=0;" parent="1" source="ZDXRayosPP1OUtTZSC_J-1" target="ZDXRayosPP1OUtTZSC_J-4" edge="1">
          <mxGeometry relative="1" as="geometry" />
        </mxCell>
        <mxCell id="ZDXRayosPP1OUtTZSC_J-1" value="Rod of Wisdom" style="rounded=1;whiteSpace=wrap;html=1;" parent="1" vertex="1">
          <mxGeometry x="70" y="50" width="130" height="30" as="geometry" />
        </mxCell>
        <mxCell id="ZDXRayosPP1OUtTZSC_J-7" style="edgeStyle=orthogonalEdgeStyle;rounded=0;orthogonalLoop=1;jettySize=auto;html=1;exitX=0.5;exitY=1;exitDx=0;exitDy=0;entryX=0.5;entryY=0;entryDx=0;entryDy=0;" parent="1" source="ZDXRayosPP1OUtTZSC_J-2" target="ZDXRayosPP1OUtTZSC_J-5" edge="1">
          <mxGeometry relative="1" as="geometry" />
        </mxCell>
        <mxCell id="ZDXRayosPP1OUtTZSC_J-2" value="Cleric&#39;s Scepter" style="rounded=1;whiteSpace=wrap;html=1;" parent="1" vertex="1">
          <mxGeometry x="240" y="120" width="130" height="30" as="geometry" />
        </mxCell>
        <mxCell id="ZDXRayosPP1OUtTZSC_J-9" style="edgeStyle=orthogonalEdgeStyle;rounded=0;orthogonalLoop=1;jettySize=auto;html=1;exitX=0.5;exitY=1;exitDx=0;exitDy=0;entryX=0.5;entryY=0;entryDx=0;entryDy=0;" parent="1" source="ZDXRayosPP1OUtTZSC_J-3" target="ZDXRayosPP1OUtTZSC_J-8" edge="1">
          <mxGeometry relative="1" as="geometry" />
        </mxCell>
        <mxCell id="ZDXRayosPP1OUtTZSC_J-3" value="Apprentice Gift" style="rounded=1;whiteSpace=wrap;html=1;" parent="1" vertex="1">
          <mxGeometry x="440" y="120" width="130" height="30" as="geometry" />
        </mxCell>
        <mxCell id="ZDXRayosPP1OUtTZSC_J-14" style="edgeStyle=orthogonalEdgeStyle;rounded=0;orthogonalLoop=1;jettySize=auto;html=1;exitX=0.5;exitY=1;exitDx=0;exitDy=0;entryX=0.5;entryY=0;entryDx=0;entryDy=0;" parent="1" source="ZDXRayosPP1OUtTZSC_J-4" target="ZDXRayosPP1OUtTZSC_J-10" edge="1">
          <mxGeometry relative="1" as="geometry" />
        </mxCell>
        <mxCell id="ZDXRayosPP1OUtTZSC_J-15" style="edgeStyle=orthogonalEdgeStyle;rounded=0;orthogonalLoop=1;jettySize=auto;html=1;exitX=0.5;exitY=1;exitDx=0;exitDy=0;entryX=0.5;entryY=0;entryDx=0;entryDy=0;" parent="1" source="ZDXRayosPP1OUtTZSC_J-4" target="ZDXRayosPP1OUtTZSC_J-11" edge="1">
          <mxGeometry relative="1" as="geometry" />
        </mxCell>
        <mxCell id="ZDXRayosPP1OUtTZSC_J-16" style="edgeStyle=orthogonalEdgeStyle;rounded=0;orthogonalLoop=1;jettySize=auto;html=1;exitX=0.5;exitY=1;exitDx=0;exitDy=0;entryX=0.5;entryY=0;entryDx=0;entryDy=0;" parent="1" source="ZDXRayosPP1OUtTZSC_J-4" target="ZDXRayosPP1OUtTZSC_J-12" edge="1">
          <mxGeometry relative="1" as="geometry" />
        </mxCell>
        <mxCell id="ZDXRayosPP1OUtTZSC_J-17" style="edgeStyle=orthogonalEdgeStyle;rounded=0;orthogonalLoop=1;jettySize=auto;html=1;exitX=0.5;exitY=1;exitDx=0;exitDy=0;entryX=0.5;entryY=0;entryDx=0;entryDy=0;" parent="1" source="ZDXRayosPP1OUtTZSC_J-4" target="ZDXRayosPP1OUtTZSC_J-13" edge="1">
          <mxGeometry relative="1" as="geometry" />
        </mxCell>
        <mxCell id="ZDXRayosPP1OUtTZSC_J-26" style="edgeStyle=orthogonalEdgeStyle;rounded=0;orthogonalLoop=1;jettySize=auto;html=1;exitX=0.5;exitY=1;exitDx=0;exitDy=0;entryX=0.5;entryY=0;entryDx=0;entryDy=0;" parent="1" source="ZDXRayosPP1OUtTZSC_J-4" target="ZDXRayosPP1OUtTZSC_J-25" edge="1">
          <mxGeometry relative="1" as="geometry">
            <Array as="points">
              <mxPoint x="135" y="280" />
              <mxPoint x="-1165" y="280" />
            </Array>
          </mxGeometry>
        </mxCell>
        <mxCell id="ZDXRayosPP1OUtTZSC_J-27" style="edgeStyle=orthogonalEdgeStyle;rounded=0;orthogonalLoop=1;jettySize=auto;html=1;exitX=0.5;exitY=1;exitDx=0;exitDy=0;entryX=0.5;entryY=0;entryDx=0;entryDy=0;" parent="1" source="ZDXRayosPP1OUtTZSC_J-4" target="ZDXRayosPP1OUtTZSC_J-24" edge="1">
          <mxGeometry relative="1" as="geometry">
            <Array as="points">
              <mxPoint x="135" y="280" />
              <mxPoint x="-965" y="280" />
            </Array>
          </mxGeometry>
        </mxCell>
        <mxCell id="ZDXRayosPP1OUtTZSC_J-28" style="edgeStyle=orthogonalEdgeStyle;rounded=0;orthogonalLoop=1;jettySize=auto;html=1;exitX=0.5;exitY=1;exitDx=0;exitDy=0;entryX=0.5;entryY=0;entryDx=0;entryDy=0;" parent="1" source="ZDXRayosPP1OUtTZSC_J-4" target="ZDXRayosPP1OUtTZSC_J-23" edge="1">
          <mxGeometry relative="1" as="geometry">
            <Array as="points">
              <mxPoint x="135" y="280" />
              <mxPoint x="-775" y="280" />
            </Array>
          </mxGeometry>
        </mxCell>
        <mxCell id="ZDXRayosPP1OUtTZSC_J-29" style="edgeStyle=orthogonalEdgeStyle;rounded=0;orthogonalLoop=1;jettySize=auto;html=1;exitX=0.5;exitY=1;exitDx=0;exitDy=0;entryX=0.5;entryY=0;entryDx=0;entryDy=0;" parent="1" source="ZDXRayosPP1OUtTZSC_J-4" target="ZDXRayosPP1OUtTZSC_J-22" edge="1">
          <mxGeometry relative="1" as="geometry">
            <Array as="points">
              <mxPoint x="135" y="280" />
              <mxPoint x="-595" y="280" />
            </Array>
          </mxGeometry>
        </mxCell>
        <mxCell id="ZDXRayosPP1OUtTZSC_J-4" value="Elemental Rod" style="rounded=1;whiteSpace=wrap;html=1;" parent="1" vertex="1">
          <mxGeometry x="70" y="190" width="130" height="30" as="geometry" />
        </mxCell>
        <mxCell id="ZDXRayosPP1OUtTZSC_J-19" style="edgeStyle=orthogonalEdgeStyle;rounded=0;orthogonalLoop=1;jettySize=auto;html=1;exitX=0.5;exitY=1;exitDx=0;exitDy=0;entryX=0.5;entryY=0;entryDx=0;entryDy=0;" parent="1" source="ZDXRayosPP1OUtTZSC_J-5" target="ZDXRayosPP1OUtTZSC_J-18" edge="1">
          <mxGeometry relative="1" as="geometry" />
        </mxCell>
        <mxCell id="ZDXRayosPP1OUtTZSC_J-5" value="Protective Scepter" style="rounded=1;whiteSpace=wrap;html=1;" parent="1" vertex="1">
          <mxGeometry x="240" y="190" width="130" height="30" as="geometry" />
        </mxCell>
        <mxCell id="ZDXRayosPP1OUtTZSC_J-21" style="edgeStyle=orthogonalEdgeStyle;rounded=0;orthogonalLoop=1;jettySize=auto;html=1;exitX=0.5;exitY=1;exitDx=0;exitDy=0;" parent="1" source="ZDXRayosPP1OUtTZSC_J-8" target="ZDXRayosPP1OUtTZSC_J-20" edge="1">
          <mxGeometry relative="1" as="geometry" />
        </mxCell>
        <mxCell id="ZDXRayosPP1OUtTZSC_J-8" value="Essence Rod" style="rounded=1;whiteSpace=wrap;html=1;" parent="1" vertex="1">
          <mxGeometry x="440" y="250" width="130" height="30" as="geometry" />
        </mxCell>
        <mxCell id="ZDXRayosPP1OUtTZSC_J-44" style="edgeStyle=orthogonalEdgeStyle;rounded=0;orthogonalLoop=1;jettySize=auto;html=1;exitX=0.5;exitY=1;exitDx=0;exitDy=0;entryX=0.5;entryY=0;entryDx=0;entryDy=0;" parent="1" source="ZDXRayosPP1OUtTZSC_J-10" target="ZDXRayosPP1OUtTZSC_J-43" edge="1">
          <mxGeometry relative="1" as="geometry" />
        </mxCell>
        <mxCell id="ZDXRayosPP1OUtTZSC_J-10" value="Ice Stick" style="rounded=1;whiteSpace=wrap;html=1;" parent="1" vertex="1">
          <mxGeometry x="70" y="340" width="130" height="30" as="geometry" />
        </mxCell>
        <mxCell id="ZDXRayosPP1OUtTZSC_J-45" style="edgeStyle=orthogonalEdgeStyle;rounded=0;orthogonalLoop=1;jettySize=auto;html=1;exitX=0.5;exitY=1;exitDx=0;exitDy=0;entryX=0;entryY=0.5;entryDx=0;entryDy=0;" parent="1" source="ZDXRayosPP1OUtTZSC_J-11" target="ZDXRayosPP1OUtTZSC_J-43" edge="1">
          <mxGeometry relative="1" as="geometry" />
        </mxCell>
        <mxCell id="ZDXRayosPP1OUtTZSC_J-11" value="Flame Stick" style="rounded=1;whiteSpace=wrap;html=1;" parent="1" vertex="1">
          <mxGeometry x="-110" y="340" width="130" height="30" as="geometry" />
        </mxCell>
        <mxCell id="ZDXRayosPP1OUtTZSC_J-46" style="edgeStyle=orthogonalEdgeStyle;rounded=0;orthogonalLoop=1;jettySize=auto;html=1;exitX=0.5;exitY=1;exitDx=0;exitDy=0;entryX=0;entryY=0.5;entryDx=0;entryDy=0;" parent="1" source="ZDXRayosPP1OUtTZSC_J-12" target="ZDXRayosPP1OUtTZSC_J-43" edge="1">
          <mxGeometry relative="1" as="geometry" />
        </mxCell>
        <mxCell id="ZDXRayosPP1OUtTZSC_J-12" value="Thunderstruck Rod" style="rounded=1;whiteSpace=wrap;html=1;" parent="1" vertex="1">
          <mxGeometry x="-300" y="340" width="130" height="30" as="geometry" />
        </mxCell>
        <mxCell id="ZDXRayosPP1OUtTZSC_J-47" style="edgeStyle=orthogonalEdgeStyle;rounded=0;orthogonalLoop=1;jettySize=auto;html=1;exitX=0.5;exitY=1;exitDx=0;exitDy=0;entryX=0.5;entryY=0;entryDx=0;entryDy=0;" parent="1" source="ZDXRayosPP1OUtTZSC_J-13" target="ZDXRayosPP1OUtTZSC_J-43" edge="1">
          <mxGeometry relative="1" as="geometry" />
        </mxCell>
        <mxCell id="ZDXRayosPP1OUtTZSC_J-13" value="Tidal Rod" style="rounded=1;whiteSpace=wrap;html=1;" parent="1" vertex="1">
          <mxGeometry x="-500" y="340" width="130" height="30" as="geometry" />
        </mxCell>
        <mxCell id="ZDXRayosPP1OUtTZSC_J-31" style="edgeStyle=orthogonalEdgeStyle;rounded=0;orthogonalLoop=1;jettySize=auto;html=1;exitX=0.5;exitY=1;exitDx=0;exitDy=0;" parent="1" source="ZDXRayosPP1OUtTZSC_J-18" target="ZDXRayosPP1OUtTZSC_J-30" edge="1">
          <mxGeometry relative="1" as="geometry" />
        </mxCell>
        <mxCell id="ZDXRayosPP1OUtTZSC_J-18" value="Glass Scepter" style="rounded=1;whiteSpace=wrap;html=1;" parent="1" vertex="1">
          <mxGeometry x="240" y="340" width="130" height="30" as="geometry" />
        </mxCell>
        <mxCell id="ZDXRayosPP1OUtTZSC_J-33" style="edgeStyle=orthogonalEdgeStyle;rounded=0;orthogonalLoop=1;jettySize=auto;html=1;exitX=0.5;exitY=1;exitDx=0;exitDy=0;entryX=0.5;entryY=0;entryDx=0;entryDy=0;" parent="1" source="ZDXRayosPP1OUtTZSC_J-20" target="ZDXRayosPP1OUtTZSC_J-32" edge="1">
          <mxGeometry relative="1" as="geometry" />
        </mxCell>
        <mxCell id="ZDXRayosPP1OUtTZSC_J-20" value="Darkbark Rod" style="rounded=1;whiteSpace=wrap;html=1;" parent="1" vertex="1">
          <mxGeometry x="440" y="410" width="130" height="30" as="geometry" />
        </mxCell>
        <mxCell id="ZDXRayosPP1OUtTZSC_J-48" style="edgeStyle=orthogonalEdgeStyle;rounded=0;orthogonalLoop=1;jettySize=auto;html=1;exitX=0.5;exitY=1;exitDx=0;exitDy=0;entryX=0;entryY=0.5;entryDx=0;entryDy=0;" parent="1" source="ZDXRayosPP1OUtTZSC_J-22" target="ZDXRayosPP1OUtTZSC_J-43" edge="1">
          <mxGeometry relative="1" as="geometry" />
        </mxCell>
        <mxCell id="ZDXRayosPP1OUtTZSC_J-22" value="Obscuro" style="rounded=1;whiteSpace=wrap;html=1;" parent="1" vertex="1">
          <mxGeometry x="-660" y="480" width="130" height="30" as="geometry" />
        </mxCell>
        <mxCell id="ZDXRayosPP1OUtTZSC_J-49" style="edgeStyle=orthogonalEdgeStyle;rounded=0;orthogonalLoop=1;jettySize=auto;html=1;exitX=0.5;exitY=1;exitDx=0;exitDy=0;" parent="1" source="ZDXRayosPP1OUtTZSC_J-23" edge="1">
          <mxGeometry relative="1" as="geometry">
            <mxPoint x="90" y="580" as="targetPoint" />
            <Array as="points">
              <mxPoint x="-775" y="580" />
            </Array>
          </mxGeometry>
        </mxCell>
        <mxCell id="ZDXRayosPP1OUtTZSC_J-23" value="Lumina" style="rounded=1;whiteSpace=wrap;html=1;" parent="1" vertex="1">
          <mxGeometry x="-840" y="480" width="130" height="30" as="geometry" />
        </mxCell>
        <mxCell id="ZDXRayosPP1OUtTZSC_J-50" style="edgeStyle=orthogonalEdgeStyle;rounded=0;orthogonalLoop=1;jettySize=auto;html=1;exitX=0.5;exitY=1;exitDx=0;exitDy=0;entryX=0;entryY=0.5;entryDx=0;entryDy=0;" parent="1" source="ZDXRayosPP1OUtTZSC_J-24" target="ZDXRayosPP1OUtTZSC_J-43" edge="1">
          <mxGeometry relative="1" as="geometry" />
        </mxCell>
        <mxCell id="ZDXRayosPP1OUtTZSC_J-24" value="Boulder Rod" style="rounded=1;whiteSpace=wrap;html=1;" parent="1" vertex="1">
          <mxGeometry x="-1030" y="480" width="130" height="30" as="geometry" />
        </mxCell>
        <mxCell id="ZDXRayosPP1OUtTZSC_J-51" style="edgeStyle=orthogonalEdgeStyle;rounded=0;orthogonalLoop=1;jettySize=auto;html=1;exitX=0.5;exitY=1;exitDx=0;exitDy=0;" parent="1" source="ZDXRayosPP1OUtTZSC_J-25" edge="1">
          <mxGeometry relative="1" as="geometry">
            <mxPoint x="90" y="580" as="targetPoint" />
            <Array as="points">
              <mxPoint x="-1165" y="580" />
            </Array>
          </mxGeometry>
        </mxCell>
        <mxCell id="ZDXRayosPP1OUtTZSC_J-25" value="Gust Cane" style="rounded=1;whiteSpace=wrap;html=1;" parent="1" vertex="1">
          <mxGeometry x="-1230" y="480" width="130" height="30" as="geometry" />
        </mxCell>
        <mxCell id="ZDXRayosPP1OUtTZSC_J-37" style="edgeStyle=orthogonalEdgeStyle;rounded=0;orthogonalLoop=1;jettySize=auto;html=1;exitX=0.5;exitY=1;exitDx=0;exitDy=0;entryX=0.5;entryY=0;entryDx=0;entryDy=0;" parent="1" source="ZDXRayosPP1OUtTZSC_J-30" target="ZDXRayosPP1OUtTZSC_J-36" edge="1">
          <mxGeometry relative="1" as="geometry" />
        </mxCell>
        <mxCell id="ZDXRayosPP1OUtTZSC_J-30" value="Guardian Scepter" style="rounded=1;whiteSpace=wrap;html=1;" parent="1" vertex="1">
          <mxGeometry x="240" y="530" width="130" height="30" as="geometry" />
        </mxCell>
        <mxCell id="ZDXRayosPP1OUtTZSC_J-35" style="edgeStyle=orthogonalEdgeStyle;rounded=0;orthogonalLoop=1;jettySize=auto;html=1;exitX=0.5;exitY=1;exitDx=0;exitDy=0;entryX=0.5;entryY=0;entryDx=0;entryDy=0;" parent="1" source="ZDXRayosPP1OUtTZSC_J-32" target="ZDXRayosPP1OUtTZSC_J-34" edge="1">
          <mxGeometry relative="1" as="geometry" />
        </mxCell>
        <mxCell id="ZDXRayosPP1OUtTZSC_J-32" value="Imbued Rod" style="rounded=1;whiteSpace=wrap;html=1;" parent="1" vertex="1">
          <mxGeometry x="440" y="530" width="130" height="30" as="geometry" />
        </mxCell>
        <mxCell id="ZDXRayosPP1OUtTZSC_J-41" style="edgeStyle=orthogonalEdgeStyle;rounded=0;orthogonalLoop=1;jettySize=auto;html=1;exitX=0.5;exitY=1;exitDx=0;exitDy=0;entryX=0.5;entryY=0;entryDx=0;entryDy=0;" parent="1" source="ZDXRayosPP1OUtTZSC_J-34" target="ZDXRayosPP1OUtTZSC_J-40" edge="1">
          <mxGeometry relative="1" as="geometry" />
        </mxCell>
        <mxCell id="ZDXRayosPP1OUtTZSC_J-34" value="The Lifestream" style="rounded=1;whiteSpace=wrap;html=1;" parent="1" vertex="1">
          <mxGeometry x="440" y="600" width="130" height="30" as="geometry" />
        </mxCell>
        <mxCell id="ZDXRayosPP1OUtTZSC_J-39" style="edgeStyle=orthogonalEdgeStyle;rounded=0;orthogonalLoop=1;jettySize=auto;html=1;exitX=0.5;exitY=1;exitDx=0;exitDy=0;entryX=0.5;entryY=0;entryDx=0;entryDy=0;" parent="1" source="ZDXRayosPP1OUtTZSC_J-36" target="ZDXRayosPP1OUtTZSC_J-38" edge="1">
          <mxGeometry relative="1" as="geometry" />
        </mxCell>
        <mxCell id="ZDXRayosPP1OUtTZSC_J-36" value="Ivory Cane" style="rounded=1;whiteSpace=wrap;html=1;" parent="1" vertex="1">
          <mxGeometry x="240" y="600" width="130" height="30" as="geometry" />
        </mxCell>
        <mxCell id="ZDXRayosPP1OUtTZSC_J-38" value="Scepter of the Archmage" style="rounded=1;whiteSpace=wrap;html=1;" parent="1" vertex="1">
          <mxGeometry x="240" y="670" width="130" height="30" as="geometry" />
        </mxCell>
        <mxCell id="ZDXRayosPP1OUtTZSC_J-40" value="Ganymede&#39;s Embrace" style="rounded=1;whiteSpace=wrap;html=1;" parent="1" vertex="1">
          <mxGeometry x="440" y="730" width="130" height="30" as="geometry" />
        </mxCell>
        <mxCell id="ZDXRayosPP1OUtTZSC_J-42" value="Gaia&#39;s Scepter" style="rounded=1;whiteSpace=wrap;html=1;" parent="1" vertex="1">
          <mxGeometry x="70" y="730" width="130" height="30" as="geometry" />
        </mxCell>
        <mxCell id="ZDXRayosPP1OUtTZSC_J-52" style="edgeStyle=orthogonalEdgeStyle;rounded=0;orthogonalLoop=1;jettySize=auto;html=1;exitX=0.5;exitY=1;exitDx=0;exitDy=0;entryX=0.5;entryY=0;entryDx=0;entryDy=0;" parent="1" source="ZDXRayosPP1OUtTZSC_J-43" target="ZDXRayosPP1OUtTZSC_J-42" edge="1">
          <mxGeometry relative="1" as="geometry" />
        </mxCell>
        <mxCell id="ZDXRayosPP1OUtTZSC_J-43" value="" style="rhombus;whiteSpace=wrap;html=1;" parent="1" vertex="1">
          <mxGeometry x="95" y="540" width="80" height="80" as="geometry" />
        </mxCell>
      </root>
    </mxGraphModel>
  </diagram>
  <diagram id="EHEM7DeKBACLzwl1J2Yy" name="Staves">
    <mxGraphModel dx="1418" dy="828" grid="1" gridSize="10" guides="1" tooltips="1" connect="1" arrows="1" fold="1" page="1" pageScale="1" pageWidth="827" pageHeight="1169" math="0" shadow="0">
      <root>
        <mxCell id="0" />
        <mxCell id="1" parent="0" />
        <mxCell id="K7gbSVRRyvibnMHr5Vl0-9" style="edgeStyle=orthogonalEdgeStyle;rounded=0;orthogonalLoop=1;jettySize=auto;html=1;exitX=0.5;exitY=1;exitDx=0;exitDy=0;entryX=0.5;entryY=0;entryDx=0;entryDy=0;" edge="1" parent="1" source="K7gbSVRRyvibnMHr5Vl0-1" target="K7gbSVRRyvibnMHr5Vl0-8">
          <mxGeometry relative="1" as="geometry" />
        </mxCell>
        <mxCell id="K7gbSVRRyvibnMHr5Vl0-1" value="Cypress Rod" style="rounded=1;whiteSpace=wrap;html=1;" vertex="1" parent="1">
          <mxGeometry x="70" y="50" width="130" height="30" as="geometry" />
        </mxCell>
        <mxCell id="K7gbSVRRyvibnMHr5Vl0-5" style="edgeStyle=orthogonalEdgeStyle;rounded=0;orthogonalLoop=1;jettySize=auto;html=1;exitX=0.5;exitY=1;exitDx=0;exitDy=0;entryX=0.5;entryY=0;entryDx=0;entryDy=0;" edge="1" parent="1" source="K7gbSVRRyvibnMHr5Vl0-2" target="K7gbSVRRyvibnMHr5Vl0-4">
          <mxGeometry relative="1" as="geometry" />
        </mxCell>
        <mxCell id="K7gbSVRRyvibnMHr5Vl0-2" value="Wizard&#39;s Staff" style="rounded=1;whiteSpace=wrap;html=1;" vertex="1" parent="1">
          <mxGeometry x="250" y="50" width="130" height="30" as="geometry" />
        </mxCell>
        <mxCell id="K7gbSVRRyvibnMHr5Vl0-7" style="edgeStyle=orthogonalEdgeStyle;rounded=0;orthogonalLoop=1;jettySize=auto;html=1;exitX=0.5;exitY=1;exitDx=0;exitDy=0;entryX=0.5;entryY=0;entryDx=0;entryDy=0;" edge="1" parent="1" source="K7gbSVRRyvibnMHr5Vl0-3" target="K7gbSVRRyvibnMHr5Vl0-6">
          <mxGeometry relative="1" as="geometry" />
        </mxCell>
        <mxCell id="K7gbSVRRyvibnMHr5Vl0-3" value="Cleric&#39;s Cane" style="rounded=1;whiteSpace=wrap;html=1;" vertex="1" parent="1">
          <mxGeometry x="760" y="100" width="130" height="30" as="geometry" />
        </mxCell>
        <mxCell id="K7gbSVRRyvibnMHr5Vl0-16" style="edgeStyle=orthogonalEdgeStyle;rounded=0;orthogonalLoop=1;jettySize=auto;html=1;exitX=0.5;exitY=1;exitDx=0;exitDy=0;entryX=0.5;entryY=0;entryDx=0;entryDy=0;" edge="1" parent="1" source="K7gbSVRRyvibnMHr5Vl0-4" target="K7gbSVRRyvibnMHr5Vl0-15">
          <mxGeometry relative="1" as="geometry" />
        </mxCell>
        <mxCell id="K7gbSVRRyvibnMHr5Vl0-18" style="edgeStyle=orthogonalEdgeStyle;rounded=0;orthogonalLoop=1;jettySize=auto;html=1;exitX=0.5;exitY=1;exitDx=0;exitDy=0;entryX=0.5;entryY=0;entryDx=0;entryDy=0;" edge="1" parent="1" source="K7gbSVRRyvibnMHr5Vl0-4" target="K7gbSVRRyvibnMHr5Vl0-17">
          <mxGeometry relative="1" as="geometry" />
        </mxCell>
        <mxCell id="K7gbSVRRyvibnMHr5Vl0-4" value="Stick of Truth" style="rounded=1;whiteSpace=wrap;html=1;" vertex="1" parent="1">
          <mxGeometry x="250" y="160" width="130" height="30" as="geometry" />
        </mxCell>
        <mxCell id="K7gbSVRRyvibnMHr5Vl0-23" style="edgeStyle=orthogonalEdgeStyle;rounded=0;orthogonalLoop=1;jettySize=auto;html=1;exitX=0.5;exitY=1;exitDx=0;exitDy=0;entryX=1;entryY=0.5;entryDx=0;entryDy=0;" edge="1" parent="1" source="K7gbSVRRyvibnMHr5Vl0-6" target="K7gbSVRRyvibnMHr5Vl0-22">
          <mxGeometry relative="1" as="geometry" />
        </mxCell>
        <mxCell id="K7gbSVRRyvibnMHr5Vl0-6" value="Enchanter&#39;s Rod" style="rounded=1;whiteSpace=wrap;html=1;" vertex="1" parent="1">
          <mxGeometry x="760" y="160" width="130" height="30" as="geometry" />
        </mxCell>
        <mxCell id="K7gbSVRRyvibnMHr5Vl0-14" style="edgeStyle=orthogonalEdgeStyle;rounded=0;orthogonalLoop=1;jettySize=auto;html=1;exitX=0.5;exitY=1;exitDx=0;exitDy=0;entryX=0.5;entryY=0;entryDx=0;entryDy=0;" edge="1" parent="1" source="K7gbSVRRyvibnMHr5Vl0-8" target="K7gbSVRRyvibnMHr5Vl0-13">
          <mxGeometry relative="1" as="geometry" />
        </mxCell>
        <mxCell id="K7gbSVRRyvibnMHr5Vl0-8" value="Cedar Rod" style="rounded=1;whiteSpace=wrap;html=1;" vertex="1" parent="1">
          <mxGeometry x="70" y="220" width="130" height="30" as="geometry" />
        </mxCell>
        <mxCell id="K7gbSVRRyvibnMHr5Vl0-12" style="edgeStyle=orthogonalEdgeStyle;rounded=0;orthogonalLoop=1;jettySize=auto;html=1;exitX=0.5;exitY=1;exitDx=0;exitDy=0;entryX=0.5;entryY=0;entryDx=0;entryDy=0;" edge="1" parent="1" source="K7gbSVRRyvibnMHr5Vl0-10" target="K7gbSVRRyvibnMHr5Vl0-11">
          <mxGeometry relative="1" as="geometry" />
        </mxCell>
        <mxCell id="K7gbSVRRyvibnMHr5Vl0-10" value="Limbo Stick" style="rounded=1;whiteSpace=wrap;html=1;" vertex="1" parent="1">
          <mxGeometry x="580" y="220" width="130" height="30" as="geometry" />
        </mxCell>
        <mxCell id="K7gbSVRRyvibnMHr5Vl0-11" value="Void Staff" style="rounded=1;whiteSpace=wrap;html=1;" vertex="1" parent="1">
          <mxGeometry x="580" y="290" width="130" height="30" as="geometry" />
        </mxCell>
        <mxCell id="K7gbSVRRyvibnMHr5Vl0-20" style="edgeStyle=orthogonalEdgeStyle;rounded=0;orthogonalLoop=1;jettySize=auto;html=1;exitX=0.5;exitY=1;exitDx=0;exitDy=0;entryX=0.5;entryY=0;entryDx=0;entryDy=0;" edge="1" parent="1" source="K7gbSVRRyvibnMHr5Vl0-13" target="K7gbSVRRyvibnMHr5Vl0-19">
          <mxGeometry relative="1" as="geometry" />
        </mxCell>
        <mxCell id="K7gbSVRRyvibnMHr5Vl0-13" value="Taxus Rod" style="rounded=1;whiteSpace=wrap;html=1;" vertex="1" parent="1">
          <mxGeometry x="70" y="290" width="130" height="30" as="geometry" />
        </mxCell>
        <mxCell id="K7gbSVRRyvibnMHr5Vl0-24" style="edgeStyle=orthogonalEdgeStyle;rounded=0;orthogonalLoop=1;jettySize=auto;html=1;exitX=0.5;exitY=1;exitDx=0;exitDy=0;entryX=0.5;entryY=0;entryDx=0;entryDy=0;" edge="1" parent="1" source="K7gbSVRRyvibnMHr5Vl0-15" target="K7gbSVRRyvibnMHr5Vl0-22">
          <mxGeometry relative="1" as="geometry" />
        </mxCell>
        <mxCell id="K7gbSVRRyvibnMHr5Vl0-15" value="Rod of Ages" style="rounded=1;whiteSpace=wrap;html=1;" vertex="1" parent="1">
          <mxGeometry x="250" y="360" width="130" height="30" as="geometry" />
        </mxCell>
        <mxCell id="K7gbSVRRyvibnMHr5Vl0-27" style="edgeStyle=orthogonalEdgeStyle;rounded=0;orthogonalLoop=1;jettySize=auto;html=1;exitX=0.5;exitY=1;exitDx=0;exitDy=0;entryX=0.5;entryY=0;entryDx=0;entryDy=0;" edge="1" parent="1" source="K7gbSVRRyvibnMHr5Vl0-17" target="K7gbSVRRyvibnMHr5Vl0-26">
          <mxGeometry relative="1" as="geometry" />
        </mxCell>
        <mxCell id="K7gbSVRRyvibnMHr5Vl0-17" value="Staff of the Magi" style="rounded=1;whiteSpace=wrap;html=1;" vertex="1" parent="1">
          <mxGeometry x="430" y="360" width="130" height="30" as="geometry" />
        </mxCell>
        <mxCell id="K7gbSVRRyvibnMHr5Vl0-29" style="edgeStyle=orthogonalEdgeStyle;rounded=0;orthogonalLoop=1;jettySize=auto;html=1;exitX=0.5;exitY=1;exitDx=0;exitDy=0;entryX=0.5;entryY=0;entryDx=0;entryDy=0;" edge="1" parent="1" source="K7gbSVRRyvibnMHr5Vl0-19" target="K7gbSVRRyvibnMHr5Vl0-28">
          <mxGeometry relative="1" as="geometry" />
        </mxCell>
        <mxCell id="K7gbSVRRyvibnMHr5Vl0-19" value="Prunus Rod" style="rounded=1;whiteSpace=wrap;html=1;" vertex="1" parent="1">
          <mxGeometry x="70" y="490" width="130" height="30" as="geometry" />
        </mxCell>
        <mxCell id="K7gbSVRRyvibnMHr5Vl0-21" value="Princess Guard" style="rounded=1;whiteSpace=wrap;html=1;" vertex="1" parent="1">
          <mxGeometry x="250" y="555" width="130" height="30" as="geometry" />
        </mxCell>
        <mxCell id="K7gbSVRRyvibnMHr5Vl0-25" style="edgeStyle=orthogonalEdgeStyle;rounded=0;orthogonalLoop=1;jettySize=auto;html=1;exitX=0.5;exitY=1;exitDx=0;exitDy=0;entryX=0.5;entryY=0;entryDx=0;entryDy=0;" edge="1" parent="1" source="K7gbSVRRyvibnMHr5Vl0-22" target="K7gbSVRRyvibnMHr5Vl0-21">
          <mxGeometry relative="1" as="geometry" />
        </mxCell>
        <mxCell id="K7gbSVRRyvibnMHr5Vl0-22" value="" style="rhombus;whiteSpace=wrap;html=1;" vertex="1" parent="1">
          <mxGeometry x="295" y="450" width="40" height="40" as="geometry" />
        </mxCell>
        <mxCell id="K7gbSVRRyvibnMHr5Vl0-26" value="Aether Staff" style="rounded=1;whiteSpace=wrap;html=1;" vertex="1" parent="1">
          <mxGeometry x="430" y="610" width="130" height="30" as="geometry" />
        </mxCell>
        <mxCell id="K7gbSVRRyvibnMHr5Vl0-28" value="Old Oak Rod" style="rounded=1;whiteSpace=wrap;html=1;" vertex="1" parent="1">
          <mxGeometry x="70" y="610" width="130" height="30" as="geometry" />
        </mxCell>
      </root>
    </mxGraphModel>
  </diagram>
  <diagram id="5sH6kVGqGVQtxT5td_D2" name="Grimoires">
    <mxGraphModel dx="1434" dy="844" grid="1" gridSize="10" guides="1" tooltips="1" connect="1" arrows="1" fold="1" page="1" pageScale="1" pageWidth="827" pageHeight="1169" math="0" shadow="0">
      <root>
        <mxCell id="0" />
        <mxCell id="1" parent="0" />
        <mxCell id="qwnpejxaHTQuwbr4-nvm-34" style="edgeStyle=orthogonalEdgeStyle;rounded=0;orthogonalLoop=1;jettySize=auto;html=1;exitX=0.5;exitY=1;exitDx=0;exitDy=0;entryX=0.5;entryY=0;entryDx=0;entryDy=0;" edge="1" parent="1" source="qwnpejxaHTQuwbr4-nvm-1" target="qwnpejxaHTQuwbr4-nvm-33">
          <mxGeometry relative="1" as="geometry" />
        </mxCell>
        <mxCell id="qwnpejxaHTQuwbr4-nvm-1" value="Wizard&#39;s Diary" style="rounded=1;whiteSpace=wrap;html=1;" vertex="1" parent="1">
          <mxGeometry x="70" y="50" width="130" height="30" as="geometry" />
        </mxCell>
        <mxCell id="qwnpejxaHTQuwbr4-nvm-9" style="edgeStyle=orthogonalEdgeStyle;rounded=0;orthogonalLoop=1;jettySize=auto;html=1;exitX=0.5;exitY=1;exitDx=0;exitDy=0;entryX=0.5;entryY=0;entryDx=0;entryDy=0;" edge="1" parent="1" source="qwnpejxaHTQuwbr4-nvm-2" target="qwnpejxaHTQuwbr4-nvm-8">
          <mxGeometry relative="1" as="geometry" />
        </mxCell>
        <mxCell id="qwnpejxaHTQuwbr4-nvm-25" style="edgeStyle=orthogonalEdgeStyle;rounded=0;orthogonalLoop=1;jettySize=auto;html=1;exitX=0;exitY=0.5;exitDx=0;exitDy=0;entryX=0;entryY=0.5;entryDx=0;entryDy=0;" edge="1" parent="1" source="qwnpejxaHTQuwbr4-nvm-2" target="qwnpejxaHTQuwbr4-nvm-23">
          <mxGeometry relative="1" as="geometry" />
        </mxCell>
        <mxCell id="qwnpejxaHTQuwbr4-nvm-2" value="Lost Chapter" style="rounded=1;whiteSpace=wrap;html=1;" vertex="1" parent="1">
          <mxGeometry x="220" y="110" width="130" height="30" as="geometry" />
        </mxCell>
        <mxCell id="qwnpejxaHTQuwbr4-nvm-14" style="edgeStyle=orthogonalEdgeStyle;rounded=0;orthogonalLoop=1;jettySize=auto;html=1;exitX=0.5;exitY=1;exitDx=0;exitDy=0;entryX=0.5;entryY=0;entryDx=0;entryDy=0;" edge="1" parent="1" source="qwnpejxaHTQuwbr4-nvm-3" target="qwnpejxaHTQuwbr4-nvm-13">
          <mxGeometry relative="1" as="geometry" />
        </mxCell>
        <mxCell id="qwnpejxaHTQuwbr4-nvm-3" value="Dark Pages" style="rounded=1;whiteSpace=wrap;html=1;" vertex="1" parent="1">
          <mxGeometry x="380" y="110" width="130" height="30" as="geometry" />
        </mxCell>
        <mxCell id="qwnpejxaHTQuwbr4-nvm-29" style="edgeStyle=orthogonalEdgeStyle;rounded=0;orthogonalLoop=1;jettySize=auto;html=1;exitX=0.5;exitY=1;exitDx=0;exitDy=0;entryX=0.5;entryY=0;entryDx=0;entryDy=0;" edge="1" parent="1" source="qwnpejxaHTQuwbr4-nvm-4" target="qwnpejxaHTQuwbr4-nvm-28">
          <mxGeometry relative="1" as="geometry" />
        </mxCell>
        <mxCell id="qwnpejxaHTQuwbr4-nvm-4" value="Purification Tome" style="rounded=1;whiteSpace=wrap;html=1;" vertex="1" parent="1">
          <mxGeometry x="540" y="170" width="130" height="30" as="geometry" />
        </mxCell>
        <mxCell id="qwnpejxaHTQuwbr4-nvm-10" style="edgeStyle=orthogonalEdgeStyle;rounded=0;orthogonalLoop=1;jettySize=auto;html=1;exitX=0.5;exitY=1;exitDx=0;exitDy=0;entryX=1;entryY=0.5;entryDx=0;entryDy=0;" edge="1" parent="1" source="qwnpejxaHTQuwbr4-nvm-5" target="qwnpejxaHTQuwbr4-nvm-8">
          <mxGeometry relative="1" as="geometry" />
        </mxCell>
        <mxCell id="qwnpejxaHTQuwbr4-nvm-19" style="edgeStyle=orthogonalEdgeStyle;rounded=0;orthogonalLoop=1;jettySize=auto;html=1;exitX=0.5;exitY=1;exitDx=0;exitDy=0;entryX=0.5;entryY=0;entryDx=0;entryDy=0;" edge="1" parent="1" source="qwnpejxaHTQuwbr4-nvm-5" target="qwnpejxaHTQuwbr4-nvm-18">
          <mxGeometry relative="1" as="geometry" />
        </mxCell>
        <mxCell id="qwnpejxaHTQuwbr4-nvm-5" value="Forgotten Scroll" style="rounded=1;whiteSpace=wrap;html=1;" vertex="1" parent="1">
          <mxGeometry x="697" y="170" width="130" height="30" as="geometry" />
        </mxCell>
        <mxCell id="qwnpejxaHTQuwbr4-nvm-15" style="edgeStyle=orthogonalEdgeStyle;rounded=0;orthogonalLoop=1;jettySize=auto;html=1;exitX=0.5;exitY=1;exitDx=0;exitDy=0;entryX=1;entryY=0.5;entryDx=0;entryDy=0;" edge="1" parent="1" source="qwnpejxaHTQuwbr4-nvm-6" target="qwnpejxaHTQuwbr4-nvm-13">
          <mxGeometry relative="1" as="geometry" />
        </mxCell>
        <mxCell id="qwnpejxaHTQuwbr4-nvm-20" style="edgeStyle=orthogonalEdgeStyle;rounded=0;orthogonalLoop=1;jettySize=auto;html=1;exitX=0.5;exitY=1;exitDx=0;exitDy=0;entryX=1;entryY=0.5;entryDx=0;entryDy=0;" edge="1" parent="1" source="qwnpejxaHTQuwbr4-nvm-6" target="qwnpejxaHTQuwbr4-nvm-18">
          <mxGeometry relative="1" as="geometry" />
        </mxCell>
        <mxCell id="qwnpejxaHTQuwbr4-nvm-6" value="Book of the Dead" style="rounded=1;whiteSpace=wrap;html=1;" vertex="1" parent="1">
          <mxGeometry x="860" y="220" width="130" height="30" as="geometry" />
        </mxCell>
        <mxCell id="qwnpejxaHTQuwbr4-nvm-30" style="edgeStyle=orthogonalEdgeStyle;rounded=0;orthogonalLoop=1;jettySize=auto;html=1;exitX=1;exitY=0.5;exitDx=0;exitDy=0;entryX=0;entryY=0.5;entryDx=0;entryDy=0;" edge="1" parent="1" source="qwnpejxaHTQuwbr4-nvm-7" target="qwnpejxaHTQuwbr4-nvm-28">
          <mxGeometry relative="1" as="geometry">
            <Array as="points">
              <mxPoint x="350" y="410" />
            </Array>
          </mxGeometry>
        </mxCell>
        <mxCell id="qwnpejxaHTQuwbr4-nvm-7" value="Scroll of the Ancients" style="rounded=1;whiteSpace=wrap;html=1;" vertex="1" parent="1">
          <mxGeometry x="220" y="280" width="130" height="30" as="geometry" />
        </mxCell>
        <mxCell id="qwnpejxaHTQuwbr4-nvm-11" style="edgeStyle=orthogonalEdgeStyle;rounded=0;orthogonalLoop=1;jettySize=auto;html=1;exitX=0.5;exitY=1;exitDx=0;exitDy=0;entryX=0.5;entryY=0;entryDx=0;entryDy=0;" edge="1" parent="1" source="qwnpejxaHTQuwbr4-nvm-8" target="qwnpejxaHTQuwbr4-nvm-7">
          <mxGeometry relative="1" as="geometry" />
        </mxCell>
        <mxCell id="qwnpejxaHTQuwbr4-nvm-8" value="" style="rhombus;whiteSpace=wrap;html=1;" vertex="1" parent="1">
          <mxGeometry x="265" y="210" width="40" height="40" as="geometry" />
        </mxCell>
        <mxCell id="qwnpejxaHTQuwbr4-nvm-24" style="edgeStyle=orthogonalEdgeStyle;rounded=0;orthogonalLoop=1;jettySize=auto;html=1;exitX=0;exitY=0.5;exitDx=0;exitDy=0;entryX=1;entryY=0.5;entryDx=0;entryDy=0;" edge="1" parent="1" source="qwnpejxaHTQuwbr4-nvm-12" target="qwnpejxaHTQuwbr4-nvm-23">
          <mxGeometry relative="1" as="geometry" />
        </mxCell>
        <mxCell id="qwnpejxaHTQuwbr4-nvm-12" value="Bible of Doom" style="rounded=1;whiteSpace=wrap;html=1;" vertex="1" parent="1">
          <mxGeometry x="380" y="340" width="130" height="30" as="geometry" />
        </mxCell>
        <mxCell id="qwnpejxaHTQuwbr4-nvm-16" style="edgeStyle=orthogonalEdgeStyle;rounded=0;orthogonalLoop=1;jettySize=auto;html=1;exitX=0.5;exitY=1;exitDx=0;exitDy=0;entryX=0.5;entryY=0;entryDx=0;entryDy=0;" edge="1" parent="1" source="qwnpejxaHTQuwbr4-nvm-13" target="qwnpejxaHTQuwbr4-nvm-12">
          <mxGeometry relative="1" as="geometry" />
        </mxCell>
        <mxCell id="qwnpejxaHTQuwbr4-nvm-13" value="" style="rhombus;whiteSpace=wrap;html=1;" vertex="1" parent="1">
          <mxGeometry x="425" y="260" width="40" height="40" as="geometry" />
        </mxCell>
        <mxCell id="qwnpejxaHTQuwbr4-nvm-17" value="Necronomicon" style="rounded=1;whiteSpace=wrap;html=1;" vertex="1" parent="1">
          <mxGeometry x="697" y="340" width="130" height="30" as="geometry" />
        </mxCell>
        <mxCell id="qwnpejxaHTQuwbr4-nvm-21" style="edgeStyle=orthogonalEdgeStyle;rounded=0;orthogonalLoop=1;jettySize=auto;html=1;exitX=0.5;exitY=1;exitDx=0;exitDy=0;entryX=0.5;entryY=0;entryDx=0;entryDy=0;" edge="1" parent="1" source="qwnpejxaHTQuwbr4-nvm-18" target="qwnpejxaHTQuwbr4-nvm-17">
          <mxGeometry relative="1" as="geometry" />
        </mxCell>
        <mxCell id="qwnpejxaHTQuwbr4-nvm-18" value="" style="rhombus;whiteSpace=wrap;html=1;" vertex="1" parent="1">
          <mxGeometry x="742" y="290" width="40" height="40" as="geometry" />
        </mxCell>
        <mxCell id="qwnpejxaHTQuwbr4-nvm-22" value="Cursed Chapter" style="rounded=1;whiteSpace=wrap;html=1;" vertex="1" parent="1">
          <mxGeometry x="220" y="410" width="130" height="30" as="geometry" />
        </mxCell>
        <mxCell id="qwnpejxaHTQuwbr4-nvm-23" value="" style="rhombus;whiteSpace=wrap;html=1;" vertex="1" parent="1">
          <mxGeometry x="260" y="335" width="40" height="40" as="geometry" />
        </mxCell>
        <mxCell id="qwnpejxaHTQuwbr4-nvm-26" style="edgeStyle=orthogonalEdgeStyle;rounded=0;orthogonalLoop=1;jettySize=auto;html=1;exitX=0.5;exitY=1;exitDx=0;exitDy=0;entryX=0.454;entryY=-0.167;entryDx=0;entryDy=0;entryPerimeter=0;" edge="1" parent="1" source="qwnpejxaHTQuwbr4-nvm-23" target="qwnpejxaHTQuwbr4-nvm-22">
          <mxGeometry relative="1" as="geometry" />
        </mxCell>
        <mxCell id="qwnpejxaHTQuwbr4-nvm-35" style="edgeStyle=orthogonalEdgeStyle;rounded=0;orthogonalLoop=1;jettySize=auto;html=1;exitX=0;exitY=0.5;exitDx=0;exitDy=0;entryX=1;entryY=0.5;entryDx=0;entryDy=0;" edge="1" parent="1" source="qwnpejxaHTQuwbr4-nvm-27" target="qwnpejxaHTQuwbr4-nvm-33">
          <mxGeometry relative="1" as="geometry" />
        </mxCell>
        <mxCell id="qwnpejxaHTQuwbr4-nvm-27" value="Genesis" style="rounded=1;whiteSpace=wrap;html=1;" vertex="1" parent="1">
          <mxGeometry x="540" y="480" width="130" height="30" as="geometry" />
        </mxCell>
        <mxCell id="qwnpejxaHTQuwbr4-nvm-31" style="edgeStyle=orthogonalEdgeStyle;rounded=0;orthogonalLoop=1;jettySize=auto;html=1;exitX=0.5;exitY=1;exitDx=0;exitDy=0;entryX=0.5;entryY=0;entryDx=0;entryDy=0;" edge="1" parent="1" source="qwnpejxaHTQuwbr4-nvm-28" target="qwnpejxaHTQuwbr4-nvm-27">
          <mxGeometry relative="1" as="geometry" />
        </mxCell>
        <mxCell id="qwnpejxaHTQuwbr4-nvm-28" value="" style="rhombus;whiteSpace=wrap;html=1;" vertex="1" parent="1">
          <mxGeometry x="585" y="390" width="40" height="40" as="geometry" />
        </mxCell>
        <mxCell id="qwnpejxaHTQuwbr4-nvm-32" value="Genesis" style="rounded=1;whiteSpace=wrap;html=1;" vertex="1" parent="1">
          <mxGeometry x="70" y="560" width="130" height="30" as="geometry" />
        </mxCell>
        <mxCell id="qwnpejxaHTQuwbr4-nvm-36" style="edgeStyle=orthogonalEdgeStyle;rounded=0;orthogonalLoop=1;jettySize=auto;html=1;exitX=0.5;exitY=1;exitDx=0;exitDy=0;entryX=0.5;entryY=0;entryDx=0;entryDy=0;" edge="1" parent="1" source="qwnpejxaHTQuwbr4-nvm-33" target="qwnpejxaHTQuwbr4-nvm-32">
          <mxGeometry relative="1" as="geometry" />
        </mxCell>
        <mxCell id="qwnpejxaHTQuwbr4-nvm-33" value="" style="rhombus;whiteSpace=wrap;html=1;" vertex="1" parent="1">
          <mxGeometry x="115" y="475" width="40" height="40" as="geometry" />
        </mxCell>
      </root>
    </mxGraphModel>
  </diagram>
  <diagram id="7HGfw0zoCtB5CTZsg-gy" name="Bows">
    <mxGraphModel dx="1434" dy="844" grid="1" gridSize="10" guides="1" tooltips="1" connect="1" arrows="1" fold="1" page="1" pageScale="1" pageWidth="827" pageHeight="1169" math="0" shadow="0">
      <root>
        <mxCell id="0" />
        <mxCell id="1" parent="0" />
        <mxCell id="Jc_IEl-D_2fDAihZzpLT-6" style="edgeStyle=orthogonalEdgeStyle;rounded=0;orthogonalLoop=1;jettySize=auto;html=1;exitX=0.5;exitY=1;exitDx=0;exitDy=0;entryX=0.5;entryY=0;entryDx=0;entryDy=0;" edge="1" parent="1" source="Jc_IEl-D_2fDAihZzpLT-1" target="Jc_IEl-D_2fDAihZzpLT-4">
          <mxGeometry relative="1" as="geometry" />
        </mxCell>
        <mxCell id="Jc_IEl-D_2fDAihZzpLT-1" value="Recurve Bow" style="rounded=1;whiteSpace=wrap;html=1;" vertex="1" parent="1">
          <mxGeometry x="70" y="50" width="130" height="30" as="geometry" />
        </mxCell>
        <mxCell id="Jc_IEl-D_2fDAihZzpLT-10" style="edgeStyle=orthogonalEdgeStyle;rounded=0;orthogonalLoop=1;jettySize=auto;html=1;exitX=0.5;exitY=1;exitDx=0;exitDy=0;entryX=0.5;entryY=0;entryDx=0;entryDy=0;" edge="1" parent="1" source="Jc_IEl-D_2fDAihZzpLT-2" target="Jc_IEl-D_2fDAihZzpLT-9">
          <mxGeometry relative="1" as="geometry" />
        </mxCell>
        <mxCell id="Jc_IEl-D_2fDAihZzpLT-2" value="Longbow" style="rounded=1;whiteSpace=wrap;html=1;" vertex="1" parent="1">
          <mxGeometry x="230" y="50" width="130" height="30" as="geometry" />
        </mxCell>
        <mxCell id="Jc_IEl-D_2fDAihZzpLT-7" style="edgeStyle=orthogonalEdgeStyle;rounded=0;orthogonalLoop=1;jettySize=auto;html=1;exitX=0.5;exitY=1;exitDx=0;exitDy=0;entryX=0.5;entryY=0;entryDx=0;entryDy=0;" edge="1" parent="1" source="Jc_IEl-D_2fDAihZzpLT-3" target="Jc_IEl-D_2fDAihZzpLT-5">
          <mxGeometry relative="1" as="geometry" />
        </mxCell>
        <mxCell id="Jc_IEl-D_2fDAihZzpLT-3" value="Training Bow" style="rounded=1;whiteSpace=wrap;html=1;" vertex="1" parent="1">
          <mxGeometry x="390" y="50" width="130" height="30" as="geometry" />
        </mxCell>
        <mxCell id="Jc_IEl-D_2fDAihZzpLT-12" style="edgeStyle=orthogonalEdgeStyle;rounded=0;orthogonalLoop=1;jettySize=auto;html=1;exitX=0.5;exitY=1;exitDx=0;exitDy=0;entryX=0.5;entryY=0;entryDx=0;entryDy=0;" edge="1" parent="1" source="Jc_IEl-D_2fDAihZzpLT-4" target="Jc_IEl-D_2fDAihZzpLT-11">
          <mxGeometry relative="1" as="geometry" />
        </mxCell>
        <mxCell id="Jc_IEl-D_2fDAihZzpLT-4" value="Hunter&#39;s Bow" style="rounded=1;whiteSpace=wrap;html=1;" vertex="1" parent="1">
          <mxGeometry x="70" y="110" width="130" height="30" as="geometry" />
        </mxCell>
        <mxCell id="Jc_IEl-D_2fDAihZzpLT-20" style="edgeStyle=orthogonalEdgeStyle;rounded=0;orthogonalLoop=1;jettySize=auto;html=1;exitX=0.5;exitY=1;exitDx=0;exitDy=0;entryX=0;entryY=0.5;entryDx=0;entryDy=0;" edge="1" parent="1" source="Jc_IEl-D_2fDAihZzpLT-5" target="Jc_IEl-D_2fDAihZzpLT-18">
          <mxGeometry relative="1" as="geometry" />
        </mxCell>
        <mxCell id="Jc_IEl-D_2fDAihZzpLT-5" value="Composite Bow" style="rounded=1;whiteSpace=wrap;html=1;" vertex="1" parent="1">
          <mxGeometry x="390" y="110" width="130" height="30" as="geometry" />
        </mxCell>
        <mxCell id="Jc_IEl-D_2fDAihZzpLT-14" style="edgeStyle=orthogonalEdgeStyle;rounded=0;orthogonalLoop=1;jettySize=auto;html=1;exitX=0.5;exitY=1;exitDx=0;exitDy=0;entryX=0.5;entryY=0;entryDx=0;entryDy=0;" edge="1" parent="1" source="Jc_IEl-D_2fDAihZzpLT-8" target="Jc_IEl-D_2fDAihZzpLT-13">
          <mxGeometry relative="1" as="geometry" />
        </mxCell>
        <mxCell id="Jc_IEl-D_2fDAihZzpLT-29" style="edgeStyle=orthogonalEdgeStyle;rounded=0;orthogonalLoop=1;jettySize=auto;html=1;exitX=1;exitY=0.5;exitDx=0;exitDy=0;entryX=0;entryY=0.5;entryDx=0;entryDy=0;" edge="1" parent="1" source="Jc_IEl-D_2fDAihZzpLT-8" target="Jc_IEl-D_2fDAihZzpLT-28">
          <mxGeometry relative="1" as="geometry" />
        </mxCell>
        <mxCell id="Jc_IEl-D_2fDAihZzpLT-8" value="Trueaim Crescent" style="rounded=1;whiteSpace=wrap;html=1;" vertex="1" parent="1">
          <mxGeometry x="540" y="160" width="130" height="30" as="geometry" />
        </mxCell>
        <mxCell id="Jc_IEl-D_2fDAihZzpLT-25" style="edgeStyle=orthogonalEdgeStyle;rounded=0;orthogonalLoop=1;jettySize=auto;html=1;exitX=0.5;exitY=1;exitDx=0;exitDy=0;entryX=1;entryY=0.5;entryDx=0;entryDy=0;" edge="1" parent="1" source="Jc_IEl-D_2fDAihZzpLT-9" target="Jc_IEl-D_2fDAihZzpLT-23">
          <mxGeometry relative="1" as="geometry" />
        </mxCell>
        <mxCell id="Jc_IEl-D_2fDAihZzpLT-9" value="Bow of the Battleborns" style="rounded=1;whiteSpace=wrap;html=1;" vertex="1" parent="1">
          <mxGeometry x="230" y="160" width="130" height="30" as="geometry" />
        </mxCell>
        <mxCell id="Jc_IEl-D_2fDAihZzpLT-24" style="edgeStyle=orthogonalEdgeStyle;rounded=0;orthogonalLoop=1;jettySize=auto;html=1;exitX=0.5;exitY=1;exitDx=0;exitDy=0;entryX=0.5;entryY=0;entryDx=0;entryDy=0;" edge="1" parent="1" source="Jc_IEl-D_2fDAihZzpLT-11" target="Jc_IEl-D_2fDAihZzpLT-23">
          <mxGeometry relative="1" as="geometry" />
        </mxCell>
        <mxCell id="Jc_IEl-D_2fDAihZzpLT-11" value="Compound Bow" style="rounded=1;whiteSpace=wrap;html=1;" vertex="1" parent="1">
          <mxGeometry x="70" y="220" width="130" height="30" as="geometry" />
        </mxCell>
        <mxCell id="Jc_IEl-D_2fDAihZzpLT-19" style="edgeStyle=orthogonalEdgeStyle;rounded=0;orthogonalLoop=1;jettySize=auto;html=1;exitX=0.5;exitY=1;exitDx=0;exitDy=0;entryX=0.5;entryY=0;entryDx=0;entryDy=0;" edge="1" parent="1" source="Jc_IEl-D_2fDAihZzpLT-13" target="Jc_IEl-D_2fDAihZzpLT-18">
          <mxGeometry relative="1" as="geometry" />
        </mxCell>
        <mxCell id="Jc_IEl-D_2fDAihZzpLT-37" style="edgeStyle=orthogonalEdgeStyle;rounded=0;orthogonalLoop=1;jettySize=auto;html=1;exitX=0;exitY=0.5;exitDx=0;exitDy=0;entryX=0.5;entryY=0;entryDx=0;entryDy=0;" edge="1" parent="1" source="Jc_IEl-D_2fDAihZzpLT-13" target="Jc_IEl-D_2fDAihZzpLT-36">
          <mxGeometry relative="1" as="geometry" />
        </mxCell>
        <mxCell id="Jc_IEl-D_2fDAihZzpLT-13" value="Artemis&#39;s Bow" style="rounded=1;whiteSpace=wrap;html=1;" vertex="1" parent="1">
          <mxGeometry x="540" y="290" width="130" height="30" as="geometry" />
        </mxCell>
        <mxCell id="Jc_IEl-D_2fDAihZzpLT-33" style="edgeStyle=orthogonalEdgeStyle;rounded=0;orthogonalLoop=1;jettySize=auto;html=1;exitX=0.5;exitY=1;exitDx=0;exitDy=0;entryX=0.5;entryY=0;entryDx=0;entryDy=0;" edge="1" parent="1" source="Jc_IEl-D_2fDAihZzpLT-15" target="Jc_IEl-D_2fDAihZzpLT-32">
          <mxGeometry relative="1" as="geometry" />
        </mxCell>
        <mxCell id="Jc_IEl-D_2fDAihZzpLT-15" value="Scorched Bow" style="rounded=1;whiteSpace=wrap;html=1;" vertex="1" parent="1">
          <mxGeometry x="697" y="340" width="130" height="30" as="geometry" />
        </mxCell>
        <mxCell id="Jc_IEl-D_2fDAihZzpLT-35" style="edgeStyle=orthogonalEdgeStyle;rounded=0;orthogonalLoop=1;jettySize=auto;html=1;exitX=0.5;exitY=1;exitDx=0;exitDy=0;entryX=0.5;entryY=0;entryDx=0;entryDy=0;" edge="1" parent="1" source="Jc_IEl-D_2fDAihZzpLT-16" target="Jc_IEl-D_2fDAihZzpLT-34">
          <mxGeometry relative="1" as="geometry" />
        </mxCell>
        <mxCell id="Jc_IEl-D_2fDAihZzpLT-16" value="Silver Bow" style="rounded=1;whiteSpace=wrap;html=1;" vertex="1" parent="1">
          <mxGeometry x="540" y="410" width="130" height="30" as="geometry" />
        </mxCell>
        <mxCell id="Jc_IEl-D_2fDAihZzpLT-21" style="edgeStyle=orthogonalEdgeStyle;rounded=0;orthogonalLoop=1;jettySize=auto;html=1;exitX=0.5;exitY=1;exitDx=0;exitDy=0;entryX=0.5;entryY=0;entryDx=0;entryDy=0;" edge="1" parent="1" source="Jc_IEl-D_2fDAihZzpLT-18" target="Jc_IEl-D_2fDAihZzpLT-16">
          <mxGeometry relative="1" as="geometry" />
        </mxCell>
        <mxCell id="Jc_IEl-D_2fDAihZzpLT-18" value="" style="rhombus;whiteSpace=wrap;html=1;" vertex="1" parent="1">
          <mxGeometry x="585" y="340" width="40" height="40" as="geometry" />
        </mxCell>
        <mxCell id="Jc_IEl-D_2fDAihZzpLT-42" style="edgeStyle=orthogonalEdgeStyle;rounded=0;orthogonalLoop=1;jettySize=auto;html=1;exitX=0.5;exitY=1;exitDx=0;exitDy=0;entryX=0.5;entryY=0;entryDx=0;entryDy=0;" edge="1" parent="1" source="Jc_IEl-D_2fDAihZzpLT-22" target="Jc_IEl-D_2fDAihZzpLT-41">
          <mxGeometry relative="1" as="geometry" />
        </mxCell>
        <mxCell id="Jc_IEl-D_2fDAihZzpLT-50" style="edgeStyle=orthogonalEdgeStyle;rounded=0;orthogonalLoop=1;jettySize=auto;html=1;exitX=1;exitY=0.5;exitDx=0;exitDy=0;entryX=0;entryY=0.5;entryDx=0;entryDy=0;" edge="1" parent="1" source="Jc_IEl-D_2fDAihZzpLT-22" target="Jc_IEl-D_2fDAihZzpLT-48">
          <mxGeometry relative="1" as="geometry">
            <Array as="points">
              <mxPoint x="280" y="475" />
              <mxPoint x="280" y="610" />
            </Array>
          </mxGeometry>
        </mxCell>
        <mxCell id="Jc_IEl-D_2fDAihZzpLT-22" value="Bow of the Steppes" style="rounded=1;whiteSpace=wrap;html=1;" vertex="1" parent="1">
          <mxGeometry x="70" y="460" width="130" height="30" as="geometry" />
        </mxCell>
        <mxCell id="Jc_IEl-D_2fDAihZzpLT-26" style="edgeStyle=orthogonalEdgeStyle;rounded=0;orthogonalLoop=1;jettySize=auto;html=1;exitX=0.5;exitY=1;exitDx=0;exitDy=0;entryX=0.5;entryY=0;entryDx=0;entryDy=0;" edge="1" parent="1" source="Jc_IEl-D_2fDAihZzpLT-23" target="Jc_IEl-D_2fDAihZzpLT-22">
          <mxGeometry relative="1" as="geometry" />
        </mxCell>
        <mxCell id="Jc_IEl-D_2fDAihZzpLT-23" value="" style="rhombus;whiteSpace=wrap;html=1;" vertex="1" parent="1">
          <mxGeometry x="115" y="360" width="40" height="40" as="geometry" />
        </mxCell>
        <mxCell id="Jc_IEl-D_2fDAihZzpLT-39" style="edgeStyle=orthogonalEdgeStyle;rounded=0;orthogonalLoop=1;jettySize=auto;html=1;exitX=0.5;exitY=1;exitDx=0;exitDy=0;entryX=0.5;entryY=0;entryDx=0;entryDy=0;" edge="1" parent="1" source="Jc_IEl-D_2fDAihZzpLT-27" target="Jc_IEl-D_2fDAihZzpLT-38">
          <mxGeometry relative="1" as="geometry" />
        </mxCell>
        <mxCell id="Jc_IEl-D_2fDAihZzpLT-27" value="Gakgung" style="rounded=1;whiteSpace=wrap;html=1;" vertex="1" parent="1">
          <mxGeometry x="880" y="460" width="130" height="30" as="geometry" />
        </mxCell>
        <mxCell id="Jc_IEl-D_2fDAihZzpLT-31" style="edgeStyle=orthogonalEdgeStyle;rounded=0;orthogonalLoop=1;jettySize=auto;html=1;exitX=0.5;exitY=1;exitDx=0;exitDy=0;entryX=0.5;entryY=0;entryDx=0;entryDy=0;" edge="1" parent="1" source="Jc_IEl-D_2fDAihZzpLT-28" target="Jc_IEl-D_2fDAihZzpLT-27">
          <mxGeometry relative="1" as="geometry" />
        </mxCell>
        <mxCell id="Jc_IEl-D_2fDAihZzpLT-28" value="" style="rhombus;whiteSpace=wrap;html=1;" vertex="1" parent="1">
          <mxGeometry x="925" y="155" width="40" height="40" as="geometry" />
        </mxCell>
        <mxCell id="Jc_IEl-D_2fDAihZzpLT-30" style="edgeStyle=orthogonalEdgeStyle;rounded=0;orthogonalLoop=1;jettySize=auto;html=1;exitX=0.5;exitY=0;exitDx=0;exitDy=0;" edge="1" parent="1" source="Jc_IEl-D_2fDAihZzpLT-1" target="Jc_IEl-D_2fDAihZzpLT-28">
          <mxGeometry relative="1" as="geometry" />
        </mxCell>
        <mxCell id="Jc_IEl-D_2fDAihZzpLT-43" style="edgeStyle=orthogonalEdgeStyle;rounded=0;orthogonalLoop=1;jettySize=auto;html=1;exitX=0.5;exitY=1;exitDx=0;exitDy=0;entryX=1;entryY=0.5;entryDx=0;entryDy=0;" edge="1" parent="1" source="Jc_IEl-D_2fDAihZzpLT-32" target="Jc_IEl-D_2fDAihZzpLT-41">
          <mxGeometry relative="1" as="geometry" />
        </mxCell>
        <mxCell id="Jc_IEl-D_2fDAihZzpLT-32" value="The Heart Piercer" style="rounded=1;whiteSpace=wrap;html=1;" vertex="1" parent="1">
          <mxGeometry x="697" y="460" width="130" height="30" as="geometry" />
        </mxCell>
        <mxCell id="Jc_IEl-D_2fDAihZzpLT-49" style="edgeStyle=orthogonalEdgeStyle;rounded=0;orthogonalLoop=1;jettySize=auto;html=1;exitX=0.5;exitY=1;exitDx=0;exitDy=0;entryX=0.5;entryY=0;entryDx=0;entryDy=0;" edge="1" parent="1" source="Jc_IEl-D_2fDAihZzpLT-34" target="Jc_IEl-D_2fDAihZzpLT-48">
          <mxGeometry relative="1" as="geometry" />
        </mxCell>
        <mxCell id="Jc_IEl-D_2fDAihZzpLT-58" style="edgeStyle=orthogonalEdgeStyle;rounded=0;orthogonalLoop=1;jettySize=auto;html=1;exitX=0;exitY=0.5;exitDx=0;exitDy=0;entryX=0;entryY=0.5;entryDx=0;entryDy=0;" edge="1" parent="1" source="Jc_IEl-D_2fDAihZzpLT-34" target="Jc_IEl-D_2fDAihZzpLT-57">
          <mxGeometry relative="1" as="geometry" />
        </mxCell>
        <mxCell id="Jc_IEl-D_2fDAihZzpLT-34" value="Ivory Bow" style="rounded=1;whiteSpace=wrap;html=1;" vertex="1" parent="1">
          <mxGeometry x="540" y="520" width="130" height="30" as="geometry" />
        </mxCell>
        <mxCell id="Jc_IEl-D_2fDAihZzpLT-46" style="edgeStyle=orthogonalEdgeStyle;rounded=0;orthogonalLoop=1;jettySize=auto;html=1;exitX=0.5;exitY=1;exitDx=0;exitDy=0;entryX=0.5;entryY=0;entryDx=0;entryDy=0;" edge="1" parent="1" source="Jc_IEl-D_2fDAihZzpLT-36" target="Jc_IEl-D_2fDAihZzpLT-45">
          <mxGeometry relative="1" as="geometry" />
        </mxCell>
        <mxCell id="Jc_IEl-D_2fDAihZzpLT-55" style="edgeStyle=orthogonalEdgeStyle;rounded=0;orthogonalLoop=1;jettySize=auto;html=1;exitX=1;exitY=0.5;exitDx=0;exitDy=0;entryX=0;entryY=0.5;entryDx=0;entryDy=0;" edge="1" parent="1" source="Jc_IEl-D_2fDAihZzpLT-36" target="Jc_IEl-D_2fDAihZzpLT-53">
          <mxGeometry relative="1" as="geometry">
            <Array as="points">
              <mxPoint x="490" y="535" />
              <mxPoint x="490" y="580" />
              <mxPoint x="740" y="580" />
            </Array>
          </mxGeometry>
        </mxCell>
        <mxCell id="Jc_IEl-D_2fDAihZzpLT-36" value="Pandarus Bow" style="rounded=1;whiteSpace=wrap;html=1;" vertex="1" parent="1">
          <mxGeometry x="310" y="520" width="130" height="30" as="geometry" />
        </mxCell>
        <mxCell id="Jc_IEl-D_2fDAihZzpLT-54" style="edgeStyle=orthogonalEdgeStyle;rounded=0;orthogonalLoop=1;jettySize=auto;html=1;exitX=0;exitY=0.5;exitDx=0;exitDy=0;entryX=1;entryY=0.5;entryDx=0;entryDy=0;" edge="1" parent="1" source="Jc_IEl-D_2fDAihZzpLT-38" target="Jc_IEl-D_2fDAihZzpLT-53">
          <mxGeometry relative="1" as="geometry" />
        </mxCell>
        <mxCell id="Jc_IEl-D_2fDAihZzpLT-38" value="Gallileic Bow" style="rounded=1;whiteSpace=wrap;html=1;" vertex="1" parent="1">
          <mxGeometry x="880" y="590" width="130" height="30" as="geometry" />
        </mxCell>
        <mxCell id="Jc_IEl-D_2fDAihZzpLT-60" style="edgeStyle=orthogonalEdgeStyle;rounded=0;orthogonalLoop=1;jettySize=auto;html=1;exitX=0.5;exitY=1;exitDx=0;exitDy=0;entryX=0.5;entryY=0;entryDx=0;entryDy=0;" edge="1" parent="1" source="Jc_IEl-D_2fDAihZzpLT-40" target="Jc_IEl-D_2fDAihZzpLT-59">
          <mxGeometry relative="1" as="geometry" />
        </mxCell>
        <mxCell id="Jc_IEl-D_2fDAihZzpLT-40" value="The Sunrise" style="rounded=1;whiteSpace=wrap;html=1;" vertex="1" parent="1">
          <mxGeometry x="70" y="590" width="130" height="30" as="geometry" />
        </mxCell>
        <mxCell id="Jc_IEl-D_2fDAihZzpLT-44" style="edgeStyle=orthogonalEdgeStyle;rounded=0;orthogonalLoop=1;jettySize=auto;html=1;exitX=0.5;exitY=1;exitDx=0;exitDy=0;entryX=0.5;entryY=0;entryDx=0;entryDy=0;" edge="1" parent="1" source="Jc_IEl-D_2fDAihZzpLT-41" target="Jc_IEl-D_2fDAihZzpLT-40">
          <mxGeometry relative="1" as="geometry" />
        </mxCell>
        <mxCell id="Jc_IEl-D_2fDAihZzpLT-41" value="" style="rhombus;whiteSpace=wrap;html=1;" vertex="1" parent="1">
          <mxGeometry x="115" y="540" width="40" height="40" as="geometry" />
        </mxCell>
        <mxCell id="Jc_IEl-D_2fDAihZzpLT-45" value="The Cloud Piercer" style="rounded=1;whiteSpace=wrap;html=1;" vertex="1" parent="1">
          <mxGeometry x="310" y="660" width="130" height="30" as="geometry" />
        </mxCell>
        <mxCell id="Jc_IEl-D_2fDAihZzpLT-47" value="The SIlent Arrow" style="rounded=1;whiteSpace=wrap;html=1;" vertex="1" parent="1">
          <mxGeometry x="540" y="660" width="130" height="30" as="geometry" />
        </mxCell>
        <mxCell id="Jc_IEl-D_2fDAihZzpLT-51" style="edgeStyle=orthogonalEdgeStyle;rounded=0;orthogonalLoop=1;jettySize=auto;html=1;exitX=0.5;exitY=1;exitDx=0;exitDy=0;entryX=0.5;entryY=0;entryDx=0;entryDy=0;" edge="1" parent="1" source="Jc_IEl-D_2fDAihZzpLT-48" target="Jc_IEl-D_2fDAihZzpLT-47">
          <mxGeometry relative="1" as="geometry" />
        </mxCell>
        <mxCell id="Jc_IEl-D_2fDAihZzpLT-48" value="" style="rhombus;whiteSpace=wrap;html=1;" vertex="1" parent="1">
          <mxGeometry x="585" y="590" width="40" height="40" as="geometry" />
        </mxCell>
        <mxCell id="Jc_IEl-D_2fDAihZzpLT-52" value="Epirus Bow" style="rounded=1;whiteSpace=wrap;html=1;" vertex="1" parent="1">
          <mxGeometry x="697" y="660" width="130" height="30" as="geometry" />
        </mxCell>
        <mxCell id="Jc_IEl-D_2fDAihZzpLT-56" style="edgeStyle=orthogonalEdgeStyle;rounded=0;orthogonalLoop=1;jettySize=auto;html=1;exitX=0.5;exitY=1;exitDx=0;exitDy=0;entryX=0.5;entryY=0;entryDx=0;entryDy=0;" edge="1" parent="1" source="Jc_IEl-D_2fDAihZzpLT-53" target="Jc_IEl-D_2fDAihZzpLT-52">
          <mxGeometry relative="1" as="geometry" />
        </mxCell>
        <mxCell id="Jc_IEl-D_2fDAihZzpLT-53" value="" style="rhombus;whiteSpace=wrap;html=1;" vertex="1" parent="1">
          <mxGeometry x="740" y="585" width="40" height="40" as="geometry" />
        </mxCell>
        <mxCell id="Jc_IEl-D_2fDAihZzpLT-57" value="The Crystal Bow" style="rounded=1;whiteSpace=wrap;html=1;" vertex="1" parent="1">
          <mxGeometry x="540" y="750" width="130" height="30" as="geometry" />
        </mxCell>
        <mxCell id="Jc_IEl-D_2fDAihZzpLT-59" value="Dark Angel Bow" style="rounded=1;whiteSpace=wrap;html=1;" vertex="1" parent="1">
          <mxGeometry x="70" y="750" width="130" height="30" as="geometry" />
        </mxCell>
        <mxCell id="Jc_IEl-D_2fDAihZzpLT-61" value="Sagittarius" style="rounded=1;whiteSpace=wrap;html=1;fillColor=#60a917;fontColor=#ffffff;strokeColor=#2D7600;" vertex="1" parent="1">
          <mxGeometry x="270" y="750" width="130" height="30" as="geometry" />
        </mxCell>
      </root>
    </mxGraphModel>
  </diagram>
</mxfile>
